<?xml version="1.0" encoding="utf-8"?>
<!-- Generator: Adobe Illustrator 19.1.0, SVG Export Plug-In . SVG Version: 6.00 Build 0)  -->
<svg version="1.1" id="Layer_1" xmlns="http://www.w3.org/2000/svg" xmlns:xlink="http://www.w3.org/1999/xlink" x="0px" y="0px"
	 viewBox="-1174.1 628 103.2 173.1" style="enable-background:new -1174.1 628 103.2 173.1;" xml:space="preserve">
<style type="text/css">
	.st0{fill:#d9a776;}
	.st1{fill:#F4F4F4;}
	.st2{fill:#7A6A58;}
	.st3{fill:#A3897A;}
	.st4{fill:#634E42;}
	.st5{fill:#CABA9F;}
	.st6{fill:#B8E0EE;}
	.st7{fill:#FFF274;}
	.st8{fill:#BBDCC4;}
	.st9{fill:#8CC5A8;}
	.st10{fill:#683B11;}
	.st11{fill:#6F6F6E;}
	.st12{fill:#F3DBCB;}
	.st13{fill:#1D1D1B;}
	.st14{fill:#9C9B9B;}
	.st15{fill:#3C3C3B;}
	.st16{fill:#FFFFFF;}
	.st17{fill:#575756;}
	.st18{fill:#628FA7;}
	.st19{fill:#C6C6C5;}
	.st20{fill:#B1B1B1;}
</style>
<g class="body-option generic-body">
	<g>
		<circle class="st0" cx="-1147.2" cy="750.6" r="6.8"/>
		<path class="st1" d="M-1147.2,743.8c1.5,0,2.9,0.5,4.1,1.4l7.1-29.9c-1.3-0.4-2.6-0.9-3.9-1.5c-2.4,0.8-4.2,2.8-4.9,5.4l-6.1,25.6
			C-1149.8,744.2-1148.6,743.8-1147.2,743.8z"/>
		<circle class="st0" cx="-1097.7" cy="750.6" r="6.8"/>
		<path class="st1" d="M-1097.7,743.8c1.7,0,3.2,0.6,4.4,1.6l-6.2-26.2c-0.7-3-3.1-5.2-6-5.7c-1,0.4-1.9,0.8-2.9,1.2l7.2,30.1
			C-1100.2,744.1-1099,743.8-1097.7,743.8z"/>
	</g>
	<g>
		<path class="st2" d="M-1118.5,765.2v25.2h10.8v-29.6c4.8-3.6,7.9-9,7.9-15h-45.1c0,5.9,3,11.2,7.7,14.9v29.7h10.8v-25.1
			c1.3,0.2,2.6,0.3,4,0.3C-1121,765.5-1119.7,765.4-1118.5,765.2z"/>
		<g>
			<path class="st3" d="M-1119.5,800.3c0,0.4,0.3,0.7,0.7,0.7h22.9c0.4,0,0.7-0.3,0.7-0.7v-0.8c0-0.4-0.3-0.7-0.7-0.7h-22.9
				c-0.4,0-0.7,0.3-0.7,0.7V800.3z"/>
			<g>
				<path class="st4" d="M-1106.4,790.1c0,0,11-0.5,11,9.1h-23.8l0.6-9.1H-1106.4z"/>
			</g>
		</g>
		<g>
			<path class="st3" d="M-1125.4,800.3c0,0.4-0.3,0.7-0.7,0.7h-22.9c-0.4,0-0.7-0.3-0.7-0.7v-0.8c0-0.4,0.3-0.7,0.7-0.7h22.9
				c0.4,0,0.7,0.3,0.7,0.7L-1125.4,800.3L-1125.4,800.3z"/>
			<g>
				<path class="st4" d="M-1138.5,790.1c0,0-11-0.5-11,9.1h23.8l-0.6-9.1H-1138.5z"/>
			</g>
		</g>
	</g>
	<path class="st1" d="M-1102.5,729.6l-4.3-15.5c-5,2.1-10.5,3.2-16.2,3.2c-5.6,0-10.9-1.1-15.8-3.1l-3.9,15.3l-3,12.5
		c-3,12.8,8.5,15,23.5,15s26.4-4,23.1-15L-1102.5,729.6z"/>
	<path class="st1" d="M-1123.1,717.3c-2.5,0-4.9-0.2-7.3-0.6c0.9,3.9,4.1,6.7,7.9,6.7c3.9,0,7.2-3,8-7
		C-1117.2,717-1120.1,717.3-1123.1,717.3z"/>
	<path class="st0" d="M-1123.1,717.3c-1.4,0-2.8-0.1-4.2-0.2c0.8,2.1,2.7,3.5,4.8,3.5c2.2,0,4.1-1.5,4.9-3.7
		C-1119.4,717.1-1121.2,717.3-1123.1,717.3z"/>
</g>
<g class="body-option female-body">
	<g>
		<g>
			<path class="st5" d="M-1121.7,799.2c0,0.4,0.3,0.7,0.7,0.7l22.9,0c0.4,0,0.7-0.3,0.7-0.7l0-0.8c0-0.4-0.3-0.7-0.7-0.7l-22.9,0
				c-0.4,0-0.7,0.3-0.7,0.7L-1121.7,799.2z"/>
			<g>
				<path class="st5" d="M-1109.8,789c0,0,12.2,1.2,12.2,9.1l-23.8,0l0.6-9.1L-1109.8,789z"/>
			</g>
		</g>
		<g>
			<path class="st5" d="M-1123.5,799.2c0,0.4-0.3,0.7-0.7,0.7l-22.9,0c-0.4,0-0.7-0.3-0.7-0.7l0-0.8c0-0.4,0.3-0.7,0.7-0.7l22.9,0
				c0.4,0,0.7,0.3,0.7,0.7L-1123.5,799.2z"/>
			<g>
				<path class="st5" d="M-1135.4,789c0,0-12.2,1.2-12.2,9.1l23.8,0l-0.6-9.1L-1135.4,789z"/>
			</g>
		</g>
		<path class="st6" d="M-1101.4,745l-41.4-0.1c0,6.2,2.9,11.6,7.5,15.3l0,23.4c-0.5,0-0.9,0.5-0.9,1v4.3c0,0.6,0.4,1,0.9,1h10.5
			c0.5,0,0.9-0.4,0.9-1v-4.3c0-0.4-0.3-0.8-0.6-0.9l0-19.1c0.8,0.1,1.5,0.1,2.3,0.1c0.5,0,0.9,0,1.4-0.1l0,19
			c-0.4,0.1-0.7,0.5-0.7,1v4.3c0,0.6,0.4,1,0.9,1h10.5c0.5,0,0.9-0.4,0.9-1v-4.3c0-0.5-0.3-0.9-0.8-1l0-22.7
			C-1104.8,757.3-1101.4,751.6-1101.4,745z"/>
	</g>
	<path class="st7" d="M-1104.2,730.2l-3.7-15.9c-4.6,1.8-9.6,2.8-14.8,2.8c-5,0-9.8-0.8-14.3-2.4l-3.3,15.5l-2.7,13.6
		c-2.7,13.9,7.6,13.5,21,13.5c13.4,0,23.6-1.6,20.7-13.5L-1104.2,730.2z"/>
	<g>
		<path class="st8" d="M-1097.8,742.7c1.4,0,2.7,0.4,3.8,1.1l-6.1-25.7c-1-4.1-5.1-6.6-9.2-5.6l7.5,31.5
			C-1100.7,743.1-1099.3,742.7-1097.8,742.7z"/>
		<path class="st0" d="M-1091,749.5c0,3.8-3.1,6.8-6.8,6.8c-3.8,0-6.8-3.1-6.8-6.8c0-3.8,3.1-6.8,6.8-6.8
			C-1094.1,742.7-1091,745.7-1091,749.5z"/>
	</g>
	<g>
		<path class="st8" d="M-1147.3,742.7c1.5,0,2.9,0.5,4.1,1.4l7.5-31.6c-4.1-1-8.2,1.6-9.2,5.6l-6.1,25.6
			C-1150,743.1-1148.7,742.7-1147.3,742.7z"/>
		<circle class="st0" cx="-1147.3" cy="749.5" r="6.8"/>
	</g>
	<g>
		<path class="st8" d="M-1104.3,712.8c-3.9,1.9-8,3.2-12.5,3.9l4.7,49.7c0,0,11.3-2,14.7-7l-4.9-24.5L-1104.3,712.8z"/>
		<path class="st9" d="M-1116.6,716.6l0.8,8.4c0,0,11.5-0.9,8.9-11.1C-1110,715.2-1113.3,716.1-1116.6,716.6z"/>
	</g>
	<g>
		<path class="st8" d="M-1140.8,713.2l-1.9,21.7l-4.9,24.5c3.3,5,14.7,7,14.7,7l4.6-49.5C-1132.7,716.2-1136.9,715-1140.8,713.2z"/>
		<g>
			<circle class="st9" cx="-1134.1" cy="740.6" r="1.4"/>
			<circle class="st9" cx="-1135.1" cy="748" r="1.4"/>
		</g>
		<path class="st9" d="M-1138.2,714.3c-2.2,9.9,9,10.8,9,10.8l0.8-8.3C-1131.8,716.3-1135.1,715.5-1138.2,714.3z"/>
	</g>
	<path class="st0" d="M-1122.7,717.1c-1.2,0-2.3,0-3.4-0.1c0.6,2.6,1.9,4.3,3.3,4.3c1.5,0,2.7-1.8,3.3-4.4
		C-1120.5,717.1-1121.6,717.1-1122.7,717.1z"/>
</g>
<g class="head">
	<path class="st0" d="M-1081.2,665.1L-1081.2,665.1c-2.6-20.9-20.3-37.1-41.9-37.1c-21.4,0-39.1,15.9-41.8,36.5
		c-5.2,0.6-9.2,5.7-9.2,11.8c0,6.5,4.6,11.9,10.2,11.9c0.2,0,0.4,0,0.7,0c5.5,16.9,21.3,29.1,40.1,29.2c18.6,0,34.4-12,40-28.7
		c0.6,0.1,1.3,0.2,2,0.2c5.6,0,10.2-5.3,10.2-11.8C-1071,670.4-1075.6,665.1-1081.2,665.1z"/>
	<g>
		<g>
			<path class="st10" d="M-1138.9,676.4c0,2.8-1.5,5.1-3.4,5.1c-1.9,0-3.4-2.3-3.4-5.1c0-2.8,1.5-5.1,3.4-5.1
				C-1140.4,671.3-1138.9,673.6-1138.9,676.4z"/>
		</g>
		<g>
			<path class="st10" d="M-1099.4,676.4c0,2.8-1.5,5.1-3.4,5.1c-1.9,0-3.4-2.3-3.4-5.1c0-2.8,1.5-5.1,3.4-5.1
				C-1100.9,671.3-1099.4,673.6-1099.4,676.4z"/>
		</g>
	</g>
	<g>
		<path class="st10" d="M-1122.8,692c-1.1,0-2.1-0.3-2.9-0.8c-1.8-1.2-1.8-3.3-1.8-3.4v-9c0-0.6,0.4-1,1-1s1,0.4,1,1v9
			c0,0,0,1.1,0.9,1.7c0.7,0.5,2.3,0.8,5.5-0.4c0.5-0.2,1.1,0.1,1.3,0.6c0.2,0.5-0.1,1.1-0.6,1.3C-1120,691.7-1121.5,692-1122.8,692z
			"/>
	</g>
	<g>
		<path class="st10" d="M-1122,706.4L-1122,706.4c-6.4,0-11.4-3.1-11.4-7c0-0.6,0.4-1,1-1l0,0c0.6,0,1,0.4,1,1c0,2.7,4.3,5,9.4,5
			l0,0c5.1,0,9.4-2.3,9.4-5c0-0.6,0.4-1,1-1l0,0c0.6,0,1,0.4,1,1C-1110.7,703.4-1115.7,706.4-1122,706.4z"/>
	</g>
</g>
<g class="body-option male-body">
	<g>
		<path class="st11" d="M-1105.6,713.7c-1,0.4-1.9,0.8-2.9,1.2l7,29.3c1.1-0.7,2.4-1.1,3.8-1.1c1.6,0,3,0.5,4.1,1.4l-6-25.1
			C-1100.4,716.4-1102.8,714.2-1105.6,713.7z"/>
		<circle class="st0" cx="-1097.8" cy="749.9" r="6.8"/>
	</g>
	<path class="st11" d="M-1147.2,744.8c1.4,0,2.8,0.5,3.9,1.2l7.3-30.6c-1.3-0.4-2.6-0.9-3.9-1.5c-2.4,0.8-4.2,2.8-4.9,5.4l-6.4,26.7
		C-1150.1,745.3-1148.7,744.8-1147.2,744.8z"/>
	<circle class="st0" cx="-1147.2" cy="750.8" r="6.8"/>
	<g>
		<path class="st13" d="M-1118.6,765.3l0,25.2l10.8,0l0-29.6c4.8-3.6,7.9-9,7.9-15l-45.1,0c0,5.9,3,11.2,7.7,14.9l0,29.7l10.8,0
			l0-25.1c1.3,0.2,2.6,0.3,4,0.3C-1121.1,765.6-1119.8,765.5-1118.6,765.3z"/>
		<g>
			<path class="st14" d="M-1119.5,800.4c0,0.4,0.3,0.7,0.7,0.7l22.9,0c0.4,0,0.7-0.3,0.7-0.7v-0.8c0-0.4-0.3-0.7-0.7-0.7l-22.9,0
				c-0.4,0-0.7,0.3-0.7,0.7L-1119.5,800.4z"/>
			<g>
				<path class="st15" d="M-1106.4,790.2c0,0,11-0.5,11,9.1l-23.8,0l0.6-9.1L-1106.4,790.2z"/>
			</g>
			<path class="st16" d="M-1104.3,795.2c-0.2,0.6-0.9,1-1.5,0.7c-0.6-0.2-1-0.9-0.7-1.5c0.1-0.4,0.5-0.7,0.9-0.8c0,0,0,0,0,0
				l1.2-3.3c0.4,0,0.8,0.1,1.3,0.2l-1.2,3.6c0,0,0,0,0,0C-1104.3,794.4-1104.1,794.8-1104.3,795.2z"/>
			<path class="st16" d="M-1107.5,795.2c-0.2,0.6-0.9,1-1.5,0.7c-0.6-0.2-1-0.9-0.7-1.5c0.1-0.4,0.5-0.7,0.9-0.8c0,0,0,0,0,0
				l1.2-3.4l1.3,0c0,0,0,0,0.1,0l-1.3,3.8c0,0,0,0,0,0C-1107.4,794.4-1107.3,794.8-1107.5,795.2z"/>
		</g>
		<g>
			<path class="st14" d="M-1125.5,800.4c0,0.4-0.3,0.7-0.7,0.7l-22.9,0c-0.4,0-0.7-0.3-0.7-0.7l0-0.8c0-0.4,0.3-0.7,0.7-0.7l22.9,0
				c0.4,0,0.7,0.3,0.7,0.7L-1125.5,800.4z"/>
			<g>
				<path class="st15" d="M-1138.6,790.2c0,0-11-0.5-11,9.1l23.8,0l-0.6-9.1L-1138.6,790.2z"/>
			</g>
			<path class="st16" d="M-1140.7,795.2c0.2,0.6,0.9,1,1.5,0.7c0.6-0.2,1-0.9,0.7-1.5c-0.1-0.4-0.5-0.7-0.9-0.8c0,0,0,0,0,0
				l-1.2-3.3c-0.4,0-0.8,0.1-1.3,0.2l1.2,3.6c0,0,0,0,0,0C-1140.7,794.4-1140.9,794.8-1140.7,795.2z"/>
			<path class="st16" d="M-1137.5,795.2c0.2,0.6,0.9,1,1.5,0.7c0.6-0.2,1-0.9,0.7-1.5c-0.1-0.4-0.5-0.7-0.9-0.8c0,0,0,0,0,0
				l-1.2-3.4l-1.3,0c0,0,0,0-0.1,0l1.3,3.8c0,0,0,0,0,0C-1137.6,794.4-1137.7,794.8-1137.5,795.2z"/>
		</g>
	</g>
	<path class="st11" d="M-1102.6,729.7l-4.3-15.5c-5,2.1-10.5,3.2-16.2,3.2c-5.6,0-10.9-1.1-15.8-3.1l-3.9,15.3l-3,12.5
		c-3,12.8,8.5,15,23.5,15c15,0,26.4-4,23.1-15L-1102.6,729.7z"/>
	<polygon class="st13" points="-1118.4,720 -1122.5,717.3 -1126.8,719.9 -1123.5,723.3 -1126.3,745 -1122.5,749 -1118.7,745 
		-1121.5,723.3 	"/>
	<g>
		<path class="st17" d="M-1123.1,717.5c-4.2,0-8.2-0.6-12.1-1.8l2.2,7.9l10.1-6.1C-1122.9,717.5-1123,717.5-1123.1,717.5z"/>
		<path class="st17" d="M-1122.2,717.5l9.9,6.6l2.6-8.7C-1113.7,716.6-1117.9,717.4-1122.2,717.5z"/>
	</g>
</g>


<g class="body-option other-body">
<g>
	<path class="st18" d="M-1097.8,743.9c1.7,0,3.2,0.6,4.4,1.6l-6.2-26.2c-0.7-3-3.1-5.2-6-5.7c-1,0.4-1.9,0.8-2.9,1.2l7.2,30.1
		C-1100.3,744.3-1099.1,743.9-1097.8,743.9z"/>
	<path class="st0" d="M-1091,750.8c0,3.8-3.1,6.8-6.8,6.8c-3.8,0-6.8-3.1-6.8-6.8c0-3.8,3.1-6.8,6.8-6.8
		C-1094,743.9-1091,747-1091,750.8z"/>
</g>
<g>
	<circle class="st0" cx="-1147.3" cy="750.8" r="6.8"/>
	<path class="st18" d="M-1147.3,743.9c1.5,0,2.9,0.5,4.1,1.4l7.1-29.8c-1.3-0.4-2.6-0.9-3.9-1.5c-2.4,0.8-4.2,2.8-4.9,5.4l-6.1,25.6
		C-1149.9,744.3-1148.7,743.9-1147.3,743.9z"/>
</g>
<g>
	<path class="st17" d="M-1118.7,765.1l0,25.2l10.8,0l0-29.6c4.8-3.6,7.9-9,7.9-15l-45.1,0c0,5.9,3,11.2,7.7,14.9l0,29.7l10.8,0
		l0-25.1c1.3,0.2,2.6,0.3,4,0.3C-1121.3,765.4-1120,765.3-1118.7,765.1z"/>
	<g>
		<path class="st14" d="M-1119.5,800.3c0,0.4,0.3,0.7,0.7,0.7l22.9,0c0.4,0,0.7-0.3,0.7-0.7l0-0.8c0-0.4-0.3-0.7-0.7-0.7l-22.9,0
			c-0.4,0-0.7,0.3-0.7,0.7L-1119.5,800.3z"/>
		<g>
			<path class="st15" d="M-1106.4,790.1c0,0,11-0.5,11,9.1l-23.8,0l0.6-9.1L-1106.4,790.1z"/>
		</g>
		<path class="st16" d="M-1104.3,795.1c-0.2,0.6-0.9,1-1.5,0.7c-0.6-0.2-1-0.9-0.7-1.5c0.1-0.4,0.5-0.7,0.9-0.8c0,0,0,0,0,0l1.2-3.3
			c0.4,0,0.8,0.1,1.3,0.2l-1.2,3.6c0,0,0,0,0,0C-1104.3,794.2-1104.2,794.7-1104.3,795.1z"/>
		<path class="st16" d="M-1107.5,795.1c-0.2,0.6-0.9,1-1.5,0.7c-0.6-0.2-1-0.9-0.7-1.5c0.1-0.4,0.5-0.7,0.9-0.8c0,0,0,0,0,0l1.2-3.4
			l1.3,0c0,0,0,0,0.1,0l-1.3,3.8c0,0,0,0,0,0C-1107.5,794.2-1107.4,794.7-1107.5,795.1z"/>
	</g>
	<g>
		<path class="st14" d="M-1125.5,800.3c0,0.4-0.3,0.7-0.7,0.7l-22.9,0c-0.4,0-0.7-0.3-0.7-0.7l0-0.8c0-0.4,0.3-0.7,0.7-0.7l22.9,0
			c0.4,0,0.7,0.3,0.7,0.7L-1125.5,800.3z"/>
		<g>
			<path class="st15" d="M-1138.6,790.1c0,0-11-0.5-11,9.1l23.8,0l-0.6-9.1L-1138.6,790.1z"/>
		</g>
		<path class="st16" d="M-1140.8,795.1c0.2,0.6,0.9,1,1.5,0.7c0.6-0.2,1-0.9,0.7-1.5c-0.1-0.4-0.5-0.7-0.9-0.8c0,0,0,0,0,0l-1.2-3.3
			c-0.4,0-0.8,0.1-1.3,0.2l1.2,3.6c0,0,0,0,0,0C-1140.8,794.2-1140.9,794.7-1140.8,795.1z"/>
		<path class="st16" d="M-1137.6,795.1c0.2,0.6,0.9,1,1.5,0.7c0.6-0.2,1-0.9,0.7-1.5c-0.1-0.4-0.5-0.7-0.9-0.8c0,0,0,0,0,0l-1.2-3.4
			l-1.3,0c0,0,0,0-0.1,0l1.3,3.8c0,0,0,0,0,0C-1137.6,794.2-1137.7,794.7-1137.6,795.1z"/>
	</g>
</g>
<path class="st19" d="M-1102.6,729.7l-4.3-15.5c-5,2.1-10.5,3.2-16.2,3.2c-5.6,0-10.9-1.1-15.8-3.1l-3.9,15.3l-3,12.5
	c-2,8.4,2.3,12.2,9.8,13.9l7.9,4.2l2.8-3.1c1,0,2,0,3,0c0.3,0,0.5,0,0.8,0l2.8,3.1l8.6-4.2c8.3-1.9,13.2-6.1,10.9-13.8
	L-1102.6,729.7z"/>
<g>
	<path class="st20" d="M-1123.2,717.5c-4.2,0-8.2-0.6-12.1-1.8l2.2,7.9l10.1-6.1C-1123,717.5-1123.1,717.5-1123.2,717.5z"/>
	<path class="st20" d="M-1122.3,717.5l9.9,7l2.6-9.1C-1113.7,716.6-1117.9,717.4-1122.3,717.5z"/>
</g>
<path class="st18" d="M-1102.6,729.7l-4.3-15.5c-1.9,0.8-3.9,1.5-6,2c0,0.3,0,0.5,0,0.8c0,11.1-4.3,20.1-9.6,20.1
	c-5.3,0-9.6-9-9.6-20.1c0-0.2,0-0.3,0-0.5c-2.4-0.5-4.7-1.2-6.9-2.1l-3.9,15.3l-3,12.5c-3,12.8,8.5,15,23.5,15c15,0,26.4-4,23.1-15
	L-1102.6,729.7z"/>


</g>
</svg>
