<?xml version="1.0" encoding="utf-8"?>
<!-- Generator: Adobe Illustrator 19.1.0, SVG Export Plug-In . SVG Version: 6.00 Build 0)  -->
<svg version="1.1" id="Layer_1" xmlns="http://www.w3.org/2000/svg" xmlns:xlink="http://www.w3.org/1999/xlink" x="0px" y="0px"
	 viewBox="-587 314 103.1 173" style="enable-background:new -587 314 103.1 173;" xml:space="preserve">
<style type="text/css">
	.st0{fill:#F3D9BA;}
	.st1{fill:#F4F4F4;}
	.st2{fill:#7A6A58;}
	.st3{fill:#A3897A;}
	.st4{fill:#634E42;}
	.st5{fill:#683B11;}
</style>
<g>
	<g>
		<circle class="st0" cx="-560.2" cy="436.6" r="6.8"/>
		<path class="st1" d="M-560.2,429.8c1.5,0,2.9,0.5,4.1,1.4l7.1-29.9c-1.3-0.4-2.6-0.9-3.9-1.5c-2.4,0.8-4.2,2.8-4.9,5.4l-6.1,25.6
			C-562.8,430.2-561.6,429.8-560.2,429.8z"/>
		<circle class="st0" cx="-510.7" cy="436.6" r="6.8"/>
		<path class="st1" d="M-510.7,429.8c1.7,0,3.2,0.6,4.4,1.6l-6.2-26.2c-0.7-3-3.1-5.2-6-5.7c-1,0.4-1.9,0.8-2.9,1.2l7.2,30.1
			C-513.2,430.1-512,429.8-510.7,429.8z"/>
	</g>
	<g>
		<path class="st2" d="M-531.5,451.2v25.2h10.8v-29.6c4.8-3.6,7.9-9,7.9-15h-45.1c0,5.9,3,11.2,7.7,14.9v29.7h10.8v-25.1
			c1.3,0.2,2.6,0.3,4,0.3C-534,451.5-532.7,451.4-531.5,451.2z"/>
		<g>
			<path class="st3" d="M-532.5,486.3c0,0.4,0.3,0.7,0.7,0.7h22.9c0.4,0,0.7-0.3,0.7-0.7v-0.8c0-0.4-0.3-0.7-0.7-0.7h-22.9
				c-0.4,0-0.7,0.3-0.7,0.7V486.3z"/>
			<g>
				<path class="st4" d="M-519.4,476.1c0,0,11-0.5,11,9.1h-23.8l0.6-9.1H-519.4z"/>
			</g>
		</g>
		<g>
			<path class="st3" d="M-538.4,486.3c0,0.4-0.3,0.7-0.7,0.7H-562c-0.4,0-0.7-0.3-0.7-0.7v-0.8c0-0.4,0.3-0.7,0.7-0.7h22.9
				c0.4,0,0.7,0.3,0.7,0.7V486.3z"/>
			<g>
				<path class="st4" d="M-551.5,476.1c0,0-11-0.5-11,9.1h23.8l-0.6-9.1H-551.5z"/>
			</g>
		</g>
	</g>
	<path class="st1" d="M-515.5,415.6l-4.3-15.5c-5,2.1-10.5,3.2-16.2,3.2c-5.6,0-10.9-1.1-15.8-3.1l-3.9,15.3l-3,12.5
		c-3,12.8,8.5,15,23.5,15s26.4-4,23.1-15L-515.5,415.6z"/>
	<path class="st1" d="M-536.1,403.3c-2.5,0-4.9-0.2-7.3-0.6c0.9,3.9,4.1,6.7,7.9,6.7c3.9,0,7.2-3,8-7
		C-530.2,403-533.1,403.3-536.1,403.3z"/>
	<path class="st0" d="M-536.1,403.3c-1.4,0-2.8-0.1-4.2-0.2c0.8,2.1,2.7,3.5,4.8,3.5c2.2,0,4.1-1.5,4.9-3.7
		C-532.4,403.1-534.2,403.3-536.1,403.3z"/>
</g>
<g>
	<path class="st0" d="M-494.1,351.1L-494.1,351.1c-2.6-20.9-20.3-37.1-41.9-37.1c-21.4,0-39.1,15.9-41.8,36.5
		c-5.2,0.6-9.2,5.7-9.2,11.8c0,6.5,4.6,11.9,10.2,11.9c0.2,0,0.4,0,0.7,0c5.5,16.9,21.3,29.1,40.1,29.2c18.6,0,34.4-12,40-28.7
		c0.6,0.1,1.3,0.2,2,0.2c5.6,0,10.2-5.3,10.2-11.8C-483.9,356.4-488.5,351.1-494.1,351.1z"/>
	<g>
		<g>
			<path class="st5" d="M-551.8,362.4c0,2.8-1.5,5.1-3.4,5.1c-1.9,0-3.4-2.3-3.4-5.1c0-2.8,1.5-5.1,3.4-5.1
				C-553.3,357.3-551.8,359.6-551.8,362.4z"/>
		</g>
		<g>
			<path class="st5" d="M-512.3,362.4c0,2.8-1.5,5.1-3.4,5.1c-1.9,0-3.4-2.3-3.4-5.1c0-2.8,1.5-5.1,3.4-5.1
				C-513.8,357.3-512.3,359.6-512.3,362.4z"/>
		</g>
	</g>
	<g>
		<path class="st5" d="M-535.7,378c-1.1,0-2.1-0.3-2.9-0.8c-1.8-1.2-1.8-3.3-1.8-3.4v-9c0-0.6,0.4-1,1-1c0.6,0,1,0.4,1,1v9
			c0,0,0,1.1,0.9,1.7c0.7,0.5,2.3,0.8,5.5-0.4c0.5-0.2,1.1,0.1,1.3,0.6s-0.1,1.1-0.6,1.3C-532.9,377.7-534.4,378-535.7,378z"/>
	</g>
	<g>
		<path class="st5" d="M-534.9,392.4L-534.9,392.4c-6.4,0-11.4-3.1-11.4-7c0-0.6,0.4-1,1-1l0,0c0.6,0,1,0.4,1,1c0,2.7,4.3,5,9.4,5
			l0,0c5.1,0,9.4-2.3,9.4-5c0-0.6,0.4-1,1-1l0,0c0.6,0,1,0.4,1,1C-523.6,389.4-528.6,392.4-534.9,392.4z"/>
	</g>
</g>
</svg>
