<?xml version="1.0" encoding="utf-8"?>
<!-- Generator: Adobe Illustrator 19.1.0, SVG Export Plug-In . SVG Version: 6.00 Build 0)  -->
<svg version="1.1" id="Layer_1" xmlns="http://www.w3.org/2000/svg" xmlns:xlink="http://www.w3.org/1999/xlink" x="0px" y="0px"
	 viewBox="0 0 117.9 119.5" style="enable-background:new 0 0 117.9 119.5;" xml:space="preserve">
<path class="hairpath" d="M112.7,71.4c6.9,1.2,6.9-12.7,0.1-12.4c6.8-0.4,4-14.2-2.4-12.2c6.4-1.9,1.1-14.9-4.7-11.5
	c5.8-3.4-1.8-15-6.7-10.3c4.9-4.7-4.6-14.3-8.4-8.5c3.8-5.8-7-13-9.7-6.4c2.6-6.6-9.2-11.1-10.5-4c1.4-7.1-10.9-8.6-11-1.3
	c0.1-7.3-12.3-5.8-11,1.3c-1.3-7.1-13.1-2.7-10.6,4c-2.5-6.6-13.5,0.6-9.8,6.4c-3.7-5.8-13.3,3.8-8.5,8.5
	c-4.8-4.7-12.6,6.9-6.9,10.3C7,31.8,1.4,44.8,7.8,46.8C1.4,44.8-1.6,58.6,5.2,59c-6.8-0.4-7,13.6-0.1,12.4
	C-1.8,72.6,0.9,86,7.6,83.3c-6.7,2.7-1.1,15.1,5,11c-6.1,4.1,2.2,14.8,7.4,9.4c-5.2,5.3,5.5,13.8,9.4,7.5c-2.7,4.2,2.1,8.3,6.3,8.3
	l2.3-9.8c0.5-2.3,2-4,4-5c-10.7-5.1-19-14.5-22.4-26c-4.7-0.6-8.3-5-8.3-10.4c0-4.5,2.5-8.4,6.1-9.8c10.2,0.3,47.7,0,62-21.9
	c0,0,9.5,22,25.3,23.3c2.4,1.9,3.9,5,3.9,8.5c0,5.4-3.6,9.8-8.3,10.4c-3.4,11.3-11.4,20.6-21.8,25.8l0,0.2c2,1,3.6,2.8,4.1,5.1
	l2.1,8.9c2.8-1.4,4.8-4.4,2.9-7.4c3.9,6.3,14.6-2.2,9.5-7.5c5.1,5.3,13.6-5.3,7.5-9.4c6.1,4.1,11.9-8.2,5.2-11
	C116.7,86,119.6,72.6,112.7,71.4z"/>
</svg>
