<?xml version="1.0" encoding="utf-8"?>
<!-- Generator: Adobe Illustrator 19.1.0, SVG Export Plug-In . SVG Version: 6.00 Build 0)  -->
<svg version="1.1" id="Layer_1" xmlns="http://www.w3.org/2000/svg" xmlns:xlink="http://www.w3.org/1999/xlink" x="0px" y="0px"
	 viewBox="0 0 93.6 68.5" style="enable-background:new 0 0 93.6 68.5;" xml:space="preserve">
<path class="hairpath" d="M92.1,43.4c0.7-1.5,1.1-3.2,1.1-5c0-3.6-1.6-6.7-4.2-8.8c0.2-0.9,0.3-1.7,0.3-2.7c0-6.3-5.1-11.5-11.5-11.5
	c-0.7,0-1.3,0.1-1.9,0.2c0.1-0.5,0.1-1,0.1-1.5c0-5.5-4.5-10-10-10c-2.7,0-5.1,1.1-6.9,2.8c-1.7-4.1-5.8-7-10.6-7
	c-4.9,0-9,3.1-10.7,7.3c-2.1-2.4-5.1-3.8-8.6-3.8c-6,0-10.9,4.6-11.4,10.4c-0.5-0.1-0.9-0.1-1.4-0.1c-6.3,0-11.5,5.1-11.5,11.5
	c0,1.1,0.2,2.2,0.5,3.3c-3.4,2-5.7,5.7-5.7,9.9c0,1.8,0.4,3.4,1.1,4.9C0.4,44.6,0,46.1,0,47.6C0,51,1.9,54,4.7,55.4
	c0,0.1,0,0.2,0,0.2l2.9,11.6l11.1-32.2c1.4,2.4,4,4,6.9,4c3,0,5.6-1.6,6.9-4.1c1.2,3,4,5.1,7.4,5.1c3.2,0,5.9-1.8,7.2-4.5
	c1.3,2.7,4,4.5,7.2,4.5c3.4,0,6.2-2.1,7.4-5.1c1.4,2.4,4,4.1,6.9,4.1c3.3,0,6.1-2,7.3-4.8h0l8.3,34.3l4.2-12.3c0.1,0,0.2,0,0.2,0
	c2.9-1.4,4.9-4.4,4.9-7.9C93.6,46.5,93.1,44.8,92.1,43.4z"/>
</svg>
