<?xml version="1.0" encoding="utf-8"?>
<!-- Generator: Adobe Illustrator 19.1.0, SVG Export Plug-In . SVG Version: 6.00 Build 0)  -->
<svg version="1.1" id="Layer_1" xmlns="http://www.w3.org/2000/svg" xmlns:xlink="http://www.w3.org/1999/xlink" x="0px" y="0px"
	 viewBox="0 0 85.7 65" style="enable-background:new 0 0 85.7 65;" xml:space="preserve">
<path class="hairpath" d="M48.2,3.6L35.7,0l2.5,3L23.9,2.4l3.6,2.4L13.7,9.5l2.2,1.5L9,18.1l1.1,0C-0.2,30.5-1.7,47.3,1.5,53.9L4,62.2
	l4.6-12.9c0,0,4.6-17.3,20.7-19.5l-3.3,8.9l11.2-8.9l0.4,6.7l7.5-7.6l1.6,7.6l8.7-8L54,36l9.1-6.2c0,0,14.1,1.8,16.5,21.8L80.5,65
	l4.8-11.2C85.3,53.8,92.1,7,48.2,3.6z"/>
</svg>
