<?xml version="1.0" encoding="utf-8"?>
<!-- Generator: Adobe Illustrator 19.1.0, SVG Export Plug-In . SVG Version: 6.00 Build 0)  -->
<svg version="1.1" id="Layer_1" xmlns="http://www.w3.org/2000/svg" xmlns:xlink="http://www.w3.org/1999/xlink" x="0px" y="0px"
	 viewBox="0 0 98.7 98.1" style="enable-background:new 0 0 98.7 98.1;" xml:space="preserve">
<path class="hairpath" d="M22.5,89.7c0-0.9,0.2-1.7,0.4-2.6C13.6,79.4,7.7,67.9,7.6,54.9l0-3.5l16.2-10.9l-2.3,9.3l19-10l-2,8l13.3-7.3
	l0.3,8l19-14.7l5,13.3l6.7-7.3l4.7,11.3c0,0,2.4-2.2,4.2-6.4c0.2,1.5,0.3,3.1,0.3,4.6l0,5c0.1,12.9-5.7,24.5-14.8,32.3
	c0.4,1,0.6,2,0.6,3c0,3.4-2,6.4-5.2,8.5c17.3-3.1,26.1-9.5,26.1-9.5l-0.3-43.7C98.3,19.9,76.1-0.2,48.9,0C21.8,0.2-0.1,20.5,0,45.5
	l0.3,43.7c9.1,3.4,17.6,5.8,25.5,7.4C23.7,94.7,22.5,92.3,22.5,89.7z"/>
</svg>
