<?xml version="1.0" encoding="utf-8"?>
<!-- Generator: Adobe Illustrator 19.1.0, SVG Export Plug-In . SVG Version: 6.00 Build 0)  -->
<svg version="1.1" id="Layer_1" xmlns="http://www.w3.org/2000/svg" xmlns:xlink="http://www.w3.org/1999/xlink" x="0px" y="0px"
	 viewBox="-256 347.9 98.7 98.1" style="enable-background:new -256 347.9 98.7 98.1;" xml:space="preserve">
<path d="M-242.4,402.3c1.4-4.7,10.2-13.9,10.2-13.9l-2.3,9.3l19-10l-2,8l13.3-7.3l0.3,8l19-14.7l5,13.3l6.7-7.3
	c0,0,4.6,8.2,4.7,11.3c0.5,12.3-14.9,47-14.9,47c17.3-3.1,26.1-9.5,26.1-9.5l-0.3-43.7c-0.1-25-22.3-45.1-49.5-44.9
	c-27.1,0.2-49,20.5-48.9,45.5l0.3,43.7c9.1,3.4,21.6,7.3,29.5,8.9C-226.2,446-246,413.9-242.4,402.3z"/>
</svg>
