<?xml version="1.0" encoding="utf-8"?>
<!-- Generator: Adobe Illustrator 19.1.0, SVG Export Plug-In . SVG Version: 6.00 Build 0)  -->
<svg version="1.1" id="Layer_1" xmlns="http://www.w3.org/2000/svg" xmlns:xlink="http://www.w3.org/1999/xlink" x="0px" y="0px"
	 viewBox="0 0 299.6 270.1" style="enable-background:new 0 0 299.6 270.1;" xml:space="preserve">
<style type="text/css">
	.st0{fill:#2F363A;}
	.st1{opacity:0.64;fill:#212628;}
	.st2{fill:#BFBFBF;}
	.st3{fill:#EFEFEF;}
	.st4{fill:#EDEDED;}
	.st5{fill:#CCCCCC;}
	.st6{opacity:0.1;fill:#353535;}
	.st7{fill:#E5E5E5;}
	.st8{fill:#DBDBDB;}
	.st9{fill:#FFA33E;}
</style>
<g>
	<g>
		<g>
			<rect x="37" y="96.7" class="st0" width="225.6" height="147"/>
			<polygon class="st1" points="37,96.7 226.8,261.3 260,260.6 262.6,96.7 			"/>
		</g>
		<g>
			<g>
				<rect x="19.6" y="99.9" class="st2" width="260.3" height="5.8"/>
				<g>
					<g>
						<rect x="4.2" y="226.1" class="st3" width="68.6" height="44"/>
						<rect x="226.8" y="226.1" class="st3" width="68.6" height="44"/>
						<g>
							<rect x="72.8" y="226.1" class="st4" width="154" height="8.8"/>
							<rect x="72.8" y="234.9" class="st5" width="154" height="8.8"/>
							<rect x="72.8" y="243.7" class="st4" width="154" height="8.8"/>
							<rect x="72.8" y="252.5" class="st5" width="154" height="8.8"/>
							<rect x="72.8" y="261.3" class="st4" width="154" height="8.8"/>
							<path class="st6" d="M72.8,226.1v44c0,0,9.3-31.1,35.8-44H72.8z"/>
							<path class="st6" d="M226.8,226.1v44c0,0-9.3-31.1-35.8-44H226.8z"/>
						</g>
					</g>
					<g>
						<g>
							<g>
								<g>
									<rect x="16.1" y="219.1" class="st4" width="41.7" height="8.9"/>
									<g>
										<rect x="22.1" y="108.3" class="st3" width="9.9" height="110.8"/>
										<rect x="32.1" y="108.3" class="st7" width="9.9" height="110.8"/>
										<rect x="42" y="108.3" class="st5" width="9.9" height="110.8"/>
									</g>
								</g>
								<g>
									<g>
										<rect x="13.9" y="99.9" class="st4" width="18.1" height="8.4"/>
										<rect x="42" y="99.9" class="st5" width="18.1" height="8.4"/>
										<rect x="32.1" y="99.9" class="st7" width="9.9" height="8.4"/>
									</g>
									<rect x="22.1" y="108.3" class="st6" width="29.8" height="3.1"/>
								</g>
							</g>
							<g>
								<g>
									<rect x="128.9" y="219.1" class="st4" width="41.7" height="8.9"/>
									<g>
										<rect x="134.9" y="108.3" class="st3" width="9.9" height="110.8"/>
										<rect x="144.8" y="108.3" class="st7" width="9.9" height="110.8"/>
										<rect x="154.8" y="108.3" class="st5" width="9.9" height="110.8"/>
									</g>
								</g>
								<g>
									<g>
										<rect x="126.7" y="99.9" class="st4" width="18.1" height="8.4"/>
										<rect x="154.8" y="99.9" class="st5" width="18.1" height="8.4"/>
										<rect x="144.8" y="99.9" class="st7" width="9.9" height="8.4"/>
									</g>
									<rect x="134.9" y="108.3" class="st6" width="29.8" height="3.1"/>
								</g>
							</g>
							<g>
								<g>
									<rect x="241.7" y="219.1" class="st4" width="41.7" height="8.9"/>
									<g>
										<rect x="247.7" y="108.3" class="st3" width="9.9" height="110.8"/>
										<rect x="257.6" y="108.3" class="st7" width="9.9" height="110.8"/>
										<rect x="267.5" y="108.3" class="st5" width="9.9" height="110.8"/>
									</g>
								</g>
								<g>
									<g>
										<rect x="239.5" y="99.9" class="st4" width="18.1" height="8.4"/>
										<rect x="267.5" y="99.9" class="st5" width="18.1" height="8.4"/>
										<rect x="257.6" y="99.9" class="st7" width="9.9" height="8.4"/>
									</g>
									<rect x="247.7" y="108.3" class="st6" width="29.8" height="3.1"/>
								</g>
							</g>
						</g>
						<polygon class="st3" points="149.8,0 299.6,99.9 149.8,99.9 0,99.9 						"/>
						<path class="st7" d="M149.8,11.7L32,90.2h117.7h117.7L149.8,11.7L32,90.2L149.8,11.7z"/>
						<path class="st8" d="M149.8,35.5l81.9,54.7h-81.9H67.9L149.8,35.5"/>
					</g>
					<g>
						<polygon class="st6" points="149.8,11.7 32,90.2 42,90.2 						"/>
						<polygon class="st6" points="149.8,11.7 267.5,90.2 257.6,90.2 						"/>
						<polygon class="st6" points="149.8,35.5 67.9,90.2 71.8,90.2 						"/>
						<polygon class="st6" points="149.8,35.5 231.7,90.2 227.8,90.2 						"/>
					</g>
				</g>
			</g>
			<circle class="st6" cx="149.8" cy="66.5" r="17.8"/>
			<circle class="st3" cx="149.8" cy="64.7" r="17.8"/>
		</g>
	</g>
	<g>
		<g>
			<rect x="37" y="96.7" class="st0" width="225.6" height="147"/>
			<polygon class="st1" points="37,96.7 226.8,261.3 260,260.6 262.6,96.7 			"/>
		</g>
		<g>
			<g>
				<rect x="19.6" y="99.9" class="st2" width="260.3" height="5.8"/>
				<g>
					<g>
						<rect x="4.2" y="226.1" class="st3" width="68.6" height="44"/>
						<rect x="226.8" y="226.1" class="st3" width="68.6" height="44"/>
						<g>
							<rect x="72.8" y="226.1" class="st4" width="154" height="8.8"/>
							<rect x="72.8" y="234.9" class="st5" width="154" height="8.8"/>
							<rect x="72.8" y="243.7" class="st4" width="154" height="8.8"/>
							<rect x="72.8" y="252.5" class="st5" width="154" height="8.8"/>
							<rect x="72.8" y="261.3" class="st4" width="154" height="8.8"/>
							<path class="st6" d="M72.8,226.1v44c0,0,9.3-31.1,35.8-44H72.8z"/>
							<path class="st6" d="M226.8,226.1v44c0,0-9.3-31.1-35.8-44H226.8z"/>
						</g>
					</g>
					<g>
						<g>
							<g>
								<g>
									<rect x="16.1" y="219.1" class="st4" width="41.7" height="8.9"/>
									<g>
										<rect x="22.1" y="108.3" class="st3" width="9.9" height="110.8"/>
										<rect x="32.1" y="108.3" class="st7" width="9.9" height="110.8"/>
										<rect x="42" y="108.3" class="st5" width="9.9" height="110.8"/>
									</g>
								</g>
								<g>
									<g>
										<rect x="13.9" y="99.9" class="st4" width="18.1" height="8.4"/>
										<rect x="42" y="99.9" class="st5" width="18.1" height="8.4"/>
										<rect x="32.1" y="99.9" class="st7" width="9.9" height="8.4"/>
									</g>
									<rect x="22.1" y="108.3" class="st6" width="29.8" height="3.1"/>
								</g>
							</g>
							<g>
								<g>
									<rect x="128.9" y="219.1" class="st4" width="41.7" height="8.9"/>
									<g>
										<rect x="134.9" y="108.3" class="st3" width="9.9" height="110.8"/>
										<rect x="144.8" y="108.3" class="st7" width="9.9" height="110.8"/>
										<rect x="154.8" y="108.3" class="st5" width="9.9" height="110.8"/>
									</g>
								</g>
								<g>
									<g>
										<rect x="126.7" y="99.9" class="st4" width="18.1" height="8.4"/>
										<rect x="154.8" y="99.9" class="st5" width="18.1" height="8.4"/>
										<rect x="144.8" y="99.9" class="st7" width="9.9" height="8.4"/>
									</g>
									<rect x="134.9" y="108.3" class="st6" width="29.8" height="3.1"/>
								</g>
							</g>
							<g>
								<g>
									<rect x="241.7" y="219.1" class="st4" width="41.7" height="8.9"/>
									<g>
										<rect x="247.7" y="108.3" class="st3" width="9.9" height="110.8"/>
										<rect x="257.6" y="108.3" class="st7" width="9.9" height="110.8"/>
										<rect x="267.5" y="108.3" class="st5" width="9.9" height="110.8"/>
									</g>
								</g>
								<g>
									<g>
										<rect x="239.5" y="99.9" class="st4" width="18.1" height="8.4"/>
										<rect x="267.5" y="99.9" class="st5" width="18.1" height="8.4"/>
										<rect x="257.6" y="99.9" class="st7" width="9.9" height="8.4"/>
									</g>
									<rect x="247.7" y="108.3" class="st6" width="29.8" height="3.1"/>
								</g>
							</g>
						</g>
						<polygon class="st3" points="149.8,0 299.6,99.9 149.8,99.9 0,99.9 						"/>
						<path class="st7" d="M149.8,11.7L32,90.2h117.7h117.7L149.8,11.7L32,90.2L149.8,11.7z"/>
						<path class="st8" d="M149.8,35.5l81.9,54.7h-81.9H67.9L149.8,35.5"/>
					</g>
					<g>
						<polygon class="st6" points="149.8,11.7 32,90.2 42,90.2 						"/>
						<polygon class="st6" points="149.8,11.7 267.5,90.2 257.6,90.2 						"/>
						<polygon class="st6" points="149.8,35.5 67.9,90.2 71.8,90.2 						"/>
						<polygon class="st6" points="149.8,35.5 231.7,90.2 227.8,90.2 						"/>
					</g>
				</g>
			</g>
			<circle class="st6" cx="149.8" cy="66.5" r="17.8"/>
			<circle class="st3" cx="149.8" cy="64.7" r="17.8"/>
		</g>
	</g>
	<g>
		<path class="st9" d="M150.4,74.3l0,2.4c-0.5,0-1.3-0.1-1.6-0.4v-1.9c-2.2-0.1-3.7-0.7-5.4-1.8c0.3-1.5,0.3-3.1,0.3-4.3
			c0.6-0.2,1.4-0.2,2.1-0.2c0.1,2.7,1,4.3,3.1,4.6v-6.8c-2.5-1.2-5.1-2.6-5.1-6.2c0-3.2,2-5,5.2-5.3v-1.8c0.7,0,1.2,0.1,1.6,0.4
			l0,1.4c1.8,0.1,3.4,0.6,4.3,1.2c0,1.3,0,3,0.2,4c-0.5,0.3-1.4,0.4-2,0.4c-0.5-2.7-1.2-3.7-2.4-3.9c0,2.1,0,4.1,0,6.4
			c2.6,1.3,5.8,2.5,5.8,6.2C156.2,71.5,154.3,74,150.4,74.3z M148.9,61.6V56c-1.4,0.2-2.2,1.1-2.2,2.5
			C146.7,60,147.6,60.9,148.9,61.6z M150.4,72.7c1.9-0.2,2.7-1.4,2.7-2.7c0-1.6-1.2-2.6-2.7-3.4L150.4,72.7z"/>
	</g>
</g>
</svg>
