<?xml version="1.0" encoding="utf-8"?>
<!-- Generator: Adobe Illustrator 19.1.0, SVG Export Plug-In . SVG Version: 6.00 Build 0)  -->
<svg version="1.1" id="Layer_1" xmlns="http://www.w3.org/2000/svg" xmlns:xlink="http://www.w3.org/1999/xlink" x="0px" y="0px"
	 viewBox="0 0 62.3 64.3" style="enable-background:new 0 0 62.3 64.3;" xml:space="preserve">
<style type="text/css">
	.st0{fill:#B1A693;}
	.st1{fill:#515F66;}
	.st2{fill:#EBE2D2;}
</style>
<g>
	<path class="st0" d="M56.1,62.3h-50c-3.4,0-6.1-2.7-6.1-6.1v-50C0,2.7,2.7,0,6.1,0h50c3.4,0,6.1,2.7,6.1,6.1v50
		C62.3,59.5,59.5,62.3,56.1,62.3z"/>
	<path class="st1" d="M6.1,54.3V8C6.1,7,7,6.1,8,6.1h46.3c1,0,1.8,0.8,1.8,1.8v46.3c0,1-0.8,1.8-1.8,1.8H8C7,56.1,6.1,55.3,6.1,54.3
		z"/>
	<g>
		<circle class="st0" cx="31.1" cy="31.1" r="10.8"/>
		<circle class="st2" cx="31.1" cy="31.1" r="7.2"/>
		<circle class="st1" cx="31.1" cy="20.4" r="1.8"/>
		<circle class="st1" cx="38.8" cy="23.5" r="1.8"/>
		<circle class="st1" cx="41.9" cy="31.1" r="1.8"/>
		<circle class="st1" cx="38.8" cy="38.8" r="1.8"/>
		<circle class="st1" cx="31.1" cy="41.9" r="1.8"/>
		<circle class="st1" cx="23.5" cy="38.8" r="1.8"/>
		<circle class="st1" cx="20.4" cy="31.1" r="1.8"/>
		<circle class="st1" cx="23.5" cy="23.5" r="1.8"/>
		<path class="st0" d="M31.1,45.3C23.3,45.3,17,39,17,31.1S23.3,17,31.1,17c7.8,0,14.2,6.4,14.2,14.2S39,45.3,31.1,45.3z M31.1,19.3
			c-6.5,0-11.8,5.3-11.8,11.8S24.6,43,31.1,43S43,37.7,43,31.1S37.7,19.3,31.1,19.3z"/>
	</g>
	<path class="st1" d="M7.1,23.5c0,0.5-0.4,0.9-0.9,0.9l0,0c-0.5,0-0.9-0.4-0.9-0.9v-7.9c0-0.5,0.4-0.9,0.9-0.9l0,0
		c0.5,0,0.9,0.4,0.9,0.9V23.5z"/>
	<path class="st1" d="M7.1,46.9c0,0.5-0.4,0.9-0.9,0.9l0,0c-0.5,0-0.9-0.4-0.9-0.9V39c0-0.5,0.4-0.9,0.9-0.9l0,0
		c0.5,0,0.9,0.4,0.9,0.9V46.9z"/>
	<rect x="13.8" y="62.3" class="st0" width="5.2" height="2"/>
	<rect x="43.2" y="62.3" class="st0" width="5.2" height="2"/>
</g>
</svg>
