<?xml version="1.0" encoding="utf-8"?>
<!-- Generator: Adobe Illustrator 19.1.0, SVG Export Plug-In . SVG Version: 6.00 Build 0)  -->
<svg version="1.1" id="Layer_1" xmlns="http://www.w3.org/2000/svg" xmlns:xlink="http://www.w3.org/1999/xlink" x="0px" y="0px"
	 viewBox="0 0 738 262.4" style="enable-background:new 0 0 738 262.4;" xml:space="preserve">
<style type="text/css">
	.st0{fill:#C87D0D;}
	.st1{fill:#E6E6E6;}
	.st2{fill:#BD2A10;}
	.st3{fill:#006B6C;}
	.st4{fill:#00000F;}
	.st5{fill:#005E60;}
	.st6{fill:#F2F2F2;}
	.st7{fill:#022334;}
	.st8{fill:#E34F35;}
	.st9{fill:#EDA131;}
	.st10{fill:#478758;}
	.st11{fill:#2F1708;}
	.st12{fill:#0F3041;}
	.st13{fill:#FFFFFF;}
	.st14{fill:#FAAE3E;}
	.st15{fill:#036B6D;}
	.st16{fill:#549465;}
	.st17{fill:#3C2415;}
	.st18{fill:#6CAD7E;}
</style>
<g>
	<g>
		<g>
			<g>
				<polygon class="st0" points="385.3,178.3 328.9,178.3 328.9,11 385.3,0 				"/>
				<g>
					<rect x="341" y="64.5" class="st1" width="11.5" height="11.5"/>
					<rect x="361.7" y="64.5" class="st1" width="11.5" height="11.5"/>
				</g>
				<g>
					<rect x="341" y="83.2" class="st1" width="11.5" height="11.5"/>
					<rect x="361.7" y="83.2" class="st1" width="11.5" height="11.5"/>
				</g>
				<g>
					<rect x="341" y="101.8" class="st1" width="11.5" height="11.5"/>
					<rect x="361.7" y="101.8" class="st1" width="11.5" height="11.5"/>
				</g>
				<g>
					<rect x="341" y="27.2" class="st1" width="11.5" height="11.5"/>
					<rect x="361.7" y="27.2" class="st1" width="11.5" height="11.5"/>
				</g>
				<g>
					<rect x="341" y="45.9" class="st1" width="11.5" height="11.5"/>
					<rect x="361.7" y="45.9" class="st1" width="11.5" height="11.5"/>
				</g>
				<g>
					<rect x="341" y="120.5" class="st1" width="11.5" height="11.5"/>
					<rect x="361.7" y="120.5" class="st1" width="11.5" height="11.5"/>
				</g>
				<g>
					<rect x="341" y="139.1" class="st1" width="11.5" height="11.5"/>
					<rect x="361.7" y="139.1" class="st1" width="11.5" height="11.5"/>
				</g>
				<g>
					<rect x="348.9" y="157.8" class="st1" width="18.1" height="20.6"/>
				</g>
			</g>
			<g>
				<polygon class="st2" points="528,173 471.5,173 471.5,105.1 500.6,89.7 528,104.8 				"/>
				<g>
					<rect x="483.7" y="115.1" class="st1" width="11.5" height="11.5"/>
					<rect x="504.4" y="115.1" class="st1" width="11.5" height="11.5"/>
				</g>
				<g>
					<rect x="483.7" y="133.8" class="st1" width="11.5" height="11.5"/>
					<rect x="504.4" y="133.8" class="st1" width="11.5" height="11.5"/>
				</g>
				<g>
					<rect x="491.6" y="152.4" class="st1" width="18.1" height="20.6"/>
				</g>
			</g>
			<g>
				<polygon class="st0" points="164,185 107.6,185 107.6,17.7 164,6.7 				"/>
				<g>
					<rect x="119.7" y="71.2" class="st1" width="11.5" height="11.5"/>
					<rect x="140.4" y="71.2" class="st1" width="11.5" height="11.5"/>
				</g>
				<g>
					<rect x="119.7" y="89.8" class="st1" width="11.5" height="11.5"/>
					<rect x="140.4" y="89.8" class="st1" width="11.5" height="11.5"/>
				</g>
				<g>
					<rect x="119.7" y="108.5" class="st1" width="11.5" height="11.5"/>
					<rect x="140.4" y="108.5" class="st1" width="11.5" height="11.5"/>
				</g>
				<g>
					<rect x="119.7" y="33.9" class="st1" width="11.5" height="11.5"/>
					<rect x="140.4" y="33.9" class="st1" width="11.5" height="11.5"/>
				</g>
				<g>
					<rect x="119.7" y="52.6" class="st1" width="11.5" height="11.5"/>
					<rect x="140.4" y="52.6" class="st1" width="11.5" height="11.5"/>
				</g>
				<g>
					<rect x="119.7" y="127.1" class="st1" width="11.5" height="11.5"/>
					<rect x="140.4" y="127.1" class="st1" width="11.5" height="11.5"/>
				</g>
				<g>
					<rect x="119.7" y="145.8" class="st1" width="11.5" height="11.5"/>
					<rect x="140.4" y="145.8" class="st1" width="11.5" height="11.5"/>
				</g>
				<g>
					<rect x="127.6" y="164.4" class="st1" width="18.1" height="20.6"/>
				</g>
			</g>
			<g>
				<polygon class="st2" points="440.2,172.3 383.7,172.3 383.7,87.2 412.8,71.8 440.2,86.8 				"/>
				<g>
					<rect x="395.8" y="95.8" class="st1" width="11.5" height="11.5"/>
					<rect x="416.6" y="95.8" class="st1" width="11.5" height="11.5"/>
				</g>
				<g>
					<rect x="395.8" y="114.5" class="st1" width="11.5" height="11.5"/>
					<rect x="416.6" y="114.5" class="st1" width="11.5" height="11.5"/>
				</g>
				<g>
					<rect x="395.8" y="133.1" class="st1" width="11.5" height="11.5"/>
					<rect x="416.6" y="133.1" class="st1" width="11.5" height="11.5"/>
				</g>
				<g>
					<rect x="403.8" y="151.7" class="st1" width="18.1" height="20.6"/>
				</g>
			</g>
			<g>
				<polygon class="st2" points="268.6,172.7 212.1,172.7 212.1,87.6 241.2,72.2 268.6,87.2 				"/>
				<g>
					<rect x="224.2" y="96.2" class="st1" width="11.5" height="11.5"/>
					<rect x="244.9" y="96.2" class="st1" width="11.5" height="11.5"/>
				</g>
				<g>
					<rect x="224.2" y="114.8" class="st1" width="11.5" height="11.5"/>
					<rect x="244.9" y="114.8" class="st1" width="11.5" height="11.5"/>
				</g>
				<g>
					<rect x="224.2" y="133.5" class="st1" width="11.5" height="11.5"/>
					<rect x="244.9" y="133.5" class="st1" width="11.5" height="11.5"/>
				</g>
				<g>
					<rect x="232.1" y="152.1" class="st1" width="18.1" height="20.6"/>
				</g>
			</g>
			<g>
				<polygon class="st3" points="434,206.4 377.5,206.4 377.5,157.8 406.6,142.5 434,157.5 				"/>
				<g>
					<rect x="389.6" y="167.2" class="st1" width="11.5" height="11.5"/>
					<rect x="410.3" y="167.2" class="st1" width="11.5" height="11.5"/>
				</g>
				<g>
					<rect x="397.5" y="185.8" class="st1" width="18.1" height="20.6"/>
				</g>
			</g>
			<g>
				<polygon class="st4" points="571.3,184.6 514.9,184.6 514.9,59.8 543.9,44.4 571.3,59.4 				"/>
				<g>
					<rect x="527" y="70.8" class="st1" width="11.5" height="11.5"/>
					<rect x="547.7" y="70.8" class="st1" width="11.5" height="11.5"/>
				</g>
				<g>
					<rect x="527" y="89.4" class="st1" width="11.5" height="11.5"/>
					<rect x="547.7" y="89.4" class="st1" width="11.5" height="11.5"/>
				</g>
				<g>
					<rect x="527" y="108.1" class="st1" width="11.5" height="11.5"/>
					<rect x="547.7" y="108.1" class="st1" width="11.5" height="11.5"/>
				</g>
				<g>
					<rect x="527" y="126.7" class="st1" width="11.5" height="11.5"/>
					<rect x="547.7" y="126.7" class="st1" width="11.5" height="11.5"/>
				</g>
				<g>
					<rect x="527" y="145.4" class="st1" width="11.5" height="11.5"/>
					<rect x="547.7" y="145.4" class="st1" width="11.5" height="11.5"/>
				</g>
				<g>
					<rect x="534.9" y="164" class="st1" width="18.1" height="20.6"/>
				</g>
			</g>
			<g>
				<polygon class="st3" points="615.7,203 559.2,203 559.2,78.2 588.3,62.8 615.7,77.8 				"/>
				<g>
					<rect x="571.3" y="89.2" class="st1" width="11.5" height="11.5"/>
					<rect x="592" y="89.2" class="st1" width="11.5" height="11.5"/>
				</g>
				<g>
					<rect x="571.3" y="107.8" class="st1" width="11.5" height="11.5"/>
					<rect x="592" y="107.8" class="st1" width="11.5" height="11.5"/>
				</g>
				<g>
					<rect x="571.3" y="126.5" class="st1" width="11.5" height="11.5"/>
					<rect x="592" y="126.5" class="st1" width="11.5" height="11.5"/>
				</g>
				<g>
					<rect x="571.3" y="145.1" class="st1" width="11.5" height="11.5"/>
					<rect x="592" y="145.1" class="st1" width="11.5" height="11.5"/>
				</g>
				<g>
					<rect x="571.3" y="163.8" class="st1" width="11.5" height="11.5"/>
					<rect x="592" y="163.8" class="st1" width="11.5" height="11.5"/>
				</g>
				<g>
					<rect x="579.2" y="182.4" class="st1" width="18.1" height="20.6"/>
				</g>
			</g>
			<g>
				<polygon class="st4" points="207.2,205.1 150.7,205.1 150.7,80.2 207.2,69.2 				"/>
				<g>
					<rect x="162.9" y="91.2" class="st1" width="11.5" height="11.5"/>
					<rect x="183.6" y="91.2" class="st1" width="11.5" height="11.5"/>
				</g>
				<g>
					<rect x="162.9" y="109.9" class="st1" width="11.5" height="11.5"/>
					<rect x="183.6" y="109.9" class="st1" width="11.5" height="11.5"/>
				</g>
				<g>
					<rect x="162.9" y="128.5" class="st1" width="11.5" height="11.5"/>
					<rect x="183.6" y="128.5" class="st1" width="11.5" height="11.5"/>
				</g>
				<g>
					<rect x="162.9" y="147.2" class="st1" width="11.5" height="11.5"/>
					<rect x="183.6" y="147.2" class="st1" width="11.5" height="11.5"/>
				</g>
				<g>
					<rect x="162.9" y="165.8" class="st1" width="11.5" height="11.5"/>
					<rect x="183.6" y="165.8" class="st1" width="11.5" height="11.5"/>
				</g>
				<g>
					<rect x="170.8" y="184.5" class="st1" width="18.1" height="20.6"/>
				</g>
			</g>
		</g>
		<g>
			<g>
				<polygon class="st5" points="92.9,236.2 27.4,236.2 27.4,91.4 92.9,78.6 				"/>
				<g>
					<rect x="41.5" y="104.2" class="st6" width="13.4" height="13.3"/>
					<rect x="65.5" y="104.2" class="st6" width="13.3" height="13.3"/>
				</g>
				<g>
					<rect x="41.5" y="125.8" class="st6" width="13.4" height="13.3"/>
					<rect x="65.5" y="125.8" class="st6" width="13.4" height="13.3"/>
				</g>
				<g>
					<rect x="41.5" y="147.4" class="st6" width="13.4" height="13.3"/>
					<rect x="65.5" y="147.4" class="st6" width="13.3" height="13.3"/>
				</g>
				<g>
					<rect x="41.5" y="169" class="st6" width="13.4" height="13.4"/>
					<rect x="65.5" y="169" class="st6" width="13.3" height="13.4"/>
				</g>
				<g>
					<rect x="41.5" y="190.7" class="st6" width="13.4" height="13.4"/>
					<rect x="65.5" y="190.7" class="st6" width="13.3" height="13.4"/>
				</g>
				<g>
					<rect x="50.6" y="212.3" class="st6" width="21" height="23.9"/>
				</g>
			</g>
			<g>
				<polygon class="st7" points="699.8,229.9 634.4,229.9 634.4,85.1 668.1,67.3 699.8,84.7 				"/>
				<g>
					<rect x="648.4" y="97.8" class="st6" width="13.4" height="13.3"/>
					<rect x="672.4" y="97.8" class="st6" width="13.3" height="13.3"/>
				</g>
				<g>
					<rect x="648.4" y="119.5" class="st6" width="13.4" height="13.3"/>
					<rect x="672.4" y="119.5" class="st6" width="13.4" height="13.3"/>
				</g>
				<g>
					<rect x="648.4" y="141.1" class="st6" width="13.4" height="13.3"/>
					<rect x="672.4" y="141.1" class="st6" width="13.3" height="13.3"/>
				</g>
				<g>
					<rect x="648.4" y="162.7" class="st6" width="13.4" height="13.3"/>
					<rect x="672.4" y="162.7" class="st6" width="13.3" height="13.3"/>
				</g>
				<g>
					<rect x="648.4" y="184.4" class="st6" width="13.4" height="13.3"/>
					<rect x="672.4" y="184.4" class="st6" width="13.3" height="13.3"/>
				</g>
				<g>
					<rect x="657.6" y="206" class="st6" width="21" height="23.9"/>
				</g>
			</g>
			<g>
				<polygon class="st8" points="352.9,228.5 287.4,228.5 287.4,129.7 321.1,111.9 352.9,129.3 				"/>
				<g>
					<rect x="301.5" y="139.7" class="st6" width="13.3" height="13.3"/>
					<rect x="325.5" y="139.7" class="st6" width="13.3" height="13.3"/>
				</g>
				<g>
					<rect x="301.5" y="161.4" class="st6" width="13.3" height="13.3"/>
					<rect x="325.5" y="161.4" class="st6" width="13.3" height="13.3"/>
				</g>
				<g>
					<rect x="301.5" y="183" class="st6" width="13.3" height="13.3"/>
					<rect x="325.5" y="183" class="st6" width="13.3" height="13.3"/>
				</g>
				<g>
					<rect x="310.7" y="204.6" class="st6" width="21" height="23.9"/>
				</g>
			</g>
			<g>
				<polygon class="st9" points="198.8,220 133.3,220 133.3,121.3 167,103.4 198.8,120.9 				"/>
				<g>
					<rect x="147.3" y="131.3" class="st6" width="13.3" height="13.3"/>
					<rect x="171.4" y="131.3" class="st6" width="13.3" height="13.3"/>
				</g>
				<g>
					<rect x="147.3" y="152.9" class="st6" width="13.3" height="13.3"/>
					<rect x="171.4" y="152.9" class="st6" width="13.3" height="13.3"/>
				</g>
				<g>
					<rect x="147.3" y="174.5" class="st6" width="13.3" height="13.3"/>
					<rect x="171.4" y="174.5" class="st6" width="13.3" height="13.3"/>
				</g>
				<g>
					<rect x="156.5" y="196.2" class="st6" width="21" height="23.9"/>
				</g>
			</g>
			<g>
				<polygon class="st8" points="635.2,232.8 569.7,232.8 569.7,134 603.4,116.2 635.2,133.6 				"/>
				<g>
					<rect x="583.7" y="144" class="st6" width="13.3" height="13.3"/>
					<rect x="607.8" y="144" class="st6" width="13.3" height="13.3"/>
				</g>
				<g>
					<rect x="583.7" y="165.7" class="st6" width="13.3" height="13.4"/>
					<rect x="607.8" y="165.7" class="st6" width="13.3" height="13.4"/>
				</g>
				<g>
					<rect x="583.7" y="187.3" class="st6" width="13.3" height="13.3"/>
					<rect x="607.8" y="187.3" class="st6" width="13.3" height="13.3"/>
				</g>
				<g>
					<rect x="592.9" y="208.9" class="st6" width="21" height="23.9"/>
				</g>
			</g>
			<g>
				<polygon class="st9" points="475.8,231.6 410.4,231.6 410.4,37.5 475.8,24.7 				"/>
				<g>
					<rect x="424.4" y="99.5" class="st6" width="13.3" height="13.3"/>
					<rect x="448.4" y="99.5" class="st6" width="13.3" height="13.3"/>
				</g>
				<g>
					<rect x="424.4" y="121.2" class="st6" width="13.3" height="13.3"/>
					<rect x="448.4" y="121.2" class="st6" width="13.3" height="13.3"/>
				</g>
				<g>
					<rect x="424.4" y="142.8" class="st6" width="13.3" height="13.3"/>
					<rect x="448.4" y="142.8" class="st6" width="13.3" height="13.3"/>
				</g>
				<g>
					<rect x="424.4" y="56.3" class="st6" width="13.3" height="13.3"/>
					<rect x="448.4" y="56.3" class="st6" width="13.3" height="13.3"/>
				</g>
				<g>
					<rect x="424.4" y="77.9" class="st6" width="13.3" height="13.3"/>
					<rect x="448.4" y="77.9" class="st6" width="13.3" height="13.3"/>
				</g>
				<g>
					<rect x="424.4" y="164.4" class="st6" width="13.3" height="13.3"/>
					<rect x="448.4" y="164.4" class="st6" width="13.3" height="13.3"/>
				</g>
				<g>
					<rect x="424.4" y="186" class="st6" width="13.3" height="13.3"/>
					<rect x="448.4" y="186" class="st6" width="13.3" height="13.3"/>
				</g>
				<g>
					<rect x="433.6" y="207.7" class="st6" width="21" height="23.9"/>
				</g>
			</g>
			<g>
				<path class="st10" d="M698.7,157.8c-0.9,0-1.8,0-2.6,0.1c-13.5,1.5-21.2,8.4-21.7,19.4c-0.6,14.3,15,17.3,20.1,18.3
					c1.6,0.3,3.1,0.5,4.6,0.6c10.6,0.5,17.2-5.9,17.7-17.1C717.2,168.1,708.8,158.2,698.7,157.8z"/>
				<path class="st10" d="M724.5,189.9c-0.6,0-1.3,0-1.9,0.1c-9.9,1-15.6,5.6-15.9,13.1c-0.4,9.9,11,12,14.8,12.6
					c1.2,0.2,2.3,0.3,3.3,0.4c7.9,0.3,12.8-4,13.2-11.6C738.3,197,732,190.2,724.5,189.9z"/>
				<path class="st10" d="M683.6,195c-0.7,0-1.5,0-2.3,0.1c-11.7,1.1-18.3,6.6-18.7,15.3c-0.5,11.4,13,13.9,17.4,14.7
					c1.4,0.2,2.7,0.4,3.9,0.4c9.2,0.4,14.9-4.7,15.3-13.5C699.6,203.2,692.3,195.3,683.6,195z"/>
				<path class="st10" d="M728.5,173.5c-0.4,0-0.8,0-1.2,0c-5.7,0.6-9.1,3.4-9.3,7.9c-0.2,4.1,2.7,6.7,8.6,7.7
					c0.7,0.1,1.3,0.2,1.9,0.2c4.8,0.2,7.8-2.5,8-7.1C736.8,177.7,733.1,173.7,728.5,173.5z"/>
				<path class="st10" d="M713.3,215.7c-0.3,0-0.7,0-1,0c-7,0.7-8,5.1-8.1,6.9c-0.2,3.6,2.4,5.9,7.5,6.8c0.6,0.1,1.1,0.2,1.6,0.2
					c4.1,0.2,6.9-2.3,7.1-6.3C720.6,219.4,717.3,215.9,713.3,215.7z"/>
				<path class="st10" d="M666.9,181.6c-0.3,0-0.7,0-1,0c-7,0.7-7.9,5-8,6.8c-0.2,3.6,2.3,5.8,7.4,6.7c0.5,0.1,1.1,0.2,1.6,0.2
					c4.1,0.2,6.8-2.3,7-6.2C674.1,185.2,670.9,181.8,666.9,181.6z"/>
				<path class="st11" d="M732.2,199.4c-0.9-0.9-2.4-0.9-3.3,0c-0.6,0.6-5.7,5.4-11.2,2.1c7.2-6.6,7.8-17,7.8-17.2
					c0.1-1.3-0.9-2.4-2.2-2.4c0,0,0,0,0,0c-1.3-0.1-2.4,0.9-2.4,2.2c0,0.7-1.1,17.8-17.9,18.1c0-4.4-0.1-8.1-0.1-11.2
					c0-3.4-0.1-6.1-0.2-7.9c-0.1-3.2-0.2-5.1-2.5-5.2c-0.9,0-1.7,0.5-2.2,1.2c-0.2,0.3-0.4,0.8-0.8,8c-2.7-0.8-6.2-2.9-6.4-8.2
					c0-1.3-1.1-2.3-2.4-2.3c-1.3,0-2.3,1.1-2.3,2.4c0.2,8.3,6,11.7,10.7,12.8c-0.3,5.8-0.7,14.2-1.1,26.7c-4-0.4-12.3-2.1-12.5-8.7
					c0-1.3-1.1-2.3-2.4-2.3c-1.3,0-2.3,1.1-2.3,2.4c0.2,9.4,10.2,12.7,16.9,13.3c-0.3,7.3-0.6,15.8-0.9,25.8c0,1.3,1,2.3,2.2,2.4
					l3.5,0.2c0.6,0,1.2-0.2,1.7-0.6c0.5-0.4,0.7-1,0.7-1.7c0-0.2,0.1-17.4,0.1-34.5c0-2.8,0-5.4,0-7.9c4.4,0,7.9-1,10.7-2.5
					c2.5,2,5,2.9,7.5,3c4.7,0.2,8.9-2.5,11.1-4.7C733.1,201.7,733.1,200.3,732.2,199.4z"/>
			</g>
			<g>
				<polygon class="st8" points="142,211 76.5,211 76.5,132.3 110.2,114.4 142,131.9 				"/>
				<g>
					<rect x="90.6" y="143.9" class="st6" width="13.3" height="13.4"/>
					<rect x="114.6" y="143.9" class="st6" width="13.3" height="13.4"/>
				</g>
				<g>
					<rect x="90.6" y="165.5" class="st6" width="13.3" height="13.4"/>
					<rect x="114.6" y="165.5" class="st6" width="13.3" height="13.4"/>
				</g>
				<g>
					<rect x="99.7" y="187.1" class="st6" width="21" height="23.9"/>
				</g>
			</g>
			<g>
				<path class="st10" d="M153.1,142.6c-0.8,0-1.7,0.1-2.5,0.2c-12.8,2-19.9,8.9-19.9,19.3c0,13.6,15,15.9,19.9,16.6
					c1.5,0.2,3,0.3,4.4,0.3c10.1,0,16.1-6.3,16.1-17C171.2,151.7,162.7,142.6,153.1,142.6z"/>
				<path class="st10" d="M179,172c-0.6,0-1.2,0-1.8,0.1c-9.4,1.3-14.6,6-14.6,13.1c0,9.4,11,10.9,14.6,11.4
					c1.1,0.2,2.2,0.2,3.2,0.2c7.5,0,12-4.3,12-11.6C192.4,178.2,186.2,172,179,172z"/>
				<path class="st10" d="M140.3,178.6c-0.7,0-1.4,0.1-2.1,0.2c-11,1.6-17.1,7-17.1,15.3c0,10.9,12.9,12.7,17.1,13.2
					c1.3,0.2,2.6,0.3,3.7,0.3c8.8,0,14-5,14-13.5C155.9,185.8,148.6,178.6,140.3,178.6z"/>
				<path class="st10" d="M182.1,156.3c-0.4,0-0.7,0-1.1,0.1c-5.4,0.8-8.5,3.7-8.5,7.9c0,3.9,2.9,6.2,8.5,7c0.6,0.1,1.2,0.1,1.8,0.1
					c4.5,0,7.3-2.7,7.3-7.1C190.2,160,186.5,156.3,182.1,156.3z"/>
				<path class="st10" d="M169.4,197.1c-0.3,0-0.6,0-1,0.1c-6.7,1-7.4,5.2-7.4,6.9c0,3.4,2.5,5.5,7.4,6.2c0.5,0.1,1.1,0.1,1.5,0.1
					c3.9,0,6.5-2.5,6.5-6.3C176.5,200.3,173.2,197.1,169.4,197.1z"/>
				<path class="st10" d="M123.9,166.6c-0.3,0-0.6,0-1,0.1c-6.6,0.9-7.3,5.1-7.3,6.8c0,3.4,2.5,5.4,7.3,6.1c0.5,0.1,1,0.1,1.5,0.1
					c3.9,0,6.4-2.4,6.4-6.2C130.8,169.7,127.6,166.6,123.9,166.6z"/>
				<path class="st11" d="M186.7,180.8c-0.9-0.8-2.3-0.8-3.1,0.2c-0.6,0.6-5.2,5.4-10.6,2.4c6.6-6.6,6.7-16.5,6.7-16.7
					c0-1.2-1-2.2-2.2-2.2c0,0,0,0,0,0c-1.2,0-2.2,1-2.2,2.2c0,0.7-0.3,17-16.3,17.9c-0.2-4.2-0.4-7.7-0.6-10.7
					c-0.2-3.2-0.3-5.8-0.5-7.5c-0.2-3-0.4-4.9-2.6-4.9c-0.8,0-1.6,0.5-2,1.3c-0.1,0.3-0.4,0.7-0.5,7.6c-2.6-0.6-6-2.5-6.4-7.5
					c-0.1-1.2-1.1-2.2-2.4-2.1c-1.2,0.1-2.1,1.1-2.1,2.4c0.6,7.9,6.1,10.9,10.8,11.7c0,5.5,0,13.6,0,25.4
					c-3.9-0.2-11.8-1.5-12.2-7.8c-0.1-1.2-1.1-2.2-2.4-2.1c-1.2,0.1-2.1,1.1-2.1,2.4c0.6,8.9,10.2,11.6,16.7,11.9
					c0.1,7,0.1,15.1,0.2,24.6c0,1.2,1,2.2,2.2,2.2h3.3c0.6,0,1.2-0.2,1.6-0.7c0.4-0.4,0.6-1,0.6-1.6c0-0.2-0.6-16.6-1.4-32.8
					c-0.1-2.7-0.2-5.2-0.3-7.5c4.1-0.2,7.4-1.3,10.1-2.8c2.5,1.8,4.9,2.5,7.2,2.5c4.5,0,8.4-2.7,10.3-4.9
					C187.7,183,187.6,181.6,186.7,180.8z"/>
			</g>
			<g>
				<polygon class="st8" points="458.7,245.3 393.2,245.3 393.2,146.5 426.9,128.7 458.7,146.1 				"/>
				<g>
					<rect x="407.3" y="156.5" class="st6" width="13.3" height="13.3"/>
					<rect x="431.3" y="156.5" class="st6" width="13.3" height="13.3"/>
				</g>
				<g>
					<rect x="407.3" y="178.2" class="st6" width="13.3" height="13.3"/>
					<rect x="431.3" y="178.2" class="st6" width="13.3" height="13.3"/>
				</g>
				<g>
					<rect x="407.3" y="199.8" class="st6" width="13.3" height="13.3"/>
					<rect x="431.3" y="199.8" class="st6" width="13.3" height="13.3"/>
				</g>
				<g>
					<rect x="416.4" y="221.4" class="st6" width="21" height="23.9"/>
				</g>
			</g>
			<g>
				<path class="st10" d="M370.9,131.1c-0.7,0-1.4,0.1-2.1,0.2c-10.8,1.7-16.8,7.5-16.8,16.3c0,11.5,12.7,13.4,16.8,14.1
					c1.3,0.2,2.6,0.3,3.7,0.3c8.5,0,13.6-5.4,13.6-14.3C386.2,138.8,379,131.1,370.9,131.1z"/>
				<path class="st10" d="M392.8,156c-0.5,0-1,0-1.6,0.1c-8,1.1-12.4,5.1-12.4,11.1c0,8,9.3,9.2,12.4,9.6c0.9,0.1,1.8,0.2,2.7,0.2
					c6.4,0,10.2-3.7,10.2-9.8C404.1,161.2,398.8,156,392.8,156z"/>
				<path class="st10" d="M360,161.5c-0.6,0-1.2,0-1.8,0.1c-9.3,1.3-14.5,5.9-14.5,12.9c0,9.2,10.9,10.7,14.5,11.2
					c1.1,0.2,2.2,0.2,3.2,0.2c7.4,0,11.8-4.3,11.8-11.4C373.2,167.7,367.1,161.5,360,161.5z"/>
				<path class="st10" d="M395.4,142.7c-0.3,0-0.6,0-0.9,0.1c-4.6,0.7-7.2,3.1-7.2,6.7c0,3.3,2.4,5.3,7.2,5.9c0.5,0.1,1,0.1,1.5,0.1
					c3.8,0,6.2-2.3,6.2-6C402.2,145.8,399.1,142.7,395.4,142.7z"/>
				<path class="st10" d="M384.7,177.2c-0.3,0-0.5,0-0.8,0.1c-5.6,0.8-6.3,4.4-6.3,5.9c0,2.9,2.1,4.7,6.3,5.2
					c0.5,0.1,0.9,0.1,1.3,0.1c3.3,0,5.5-2.1,5.5-5.3C390.6,179.9,387.9,177.2,384.7,177.2z"/>
				<path class="st10" d="M346.2,151.4c-0.3,0-0.5,0-0.8,0.1c-5.6,0.8-6.2,4.3-6.2,5.8c0,2.9,2.1,4.6,6.2,5.2
					c0.4,0.1,0.9,0.1,1.3,0.1c3.3,0,5.4-2.1,5.4-5.3C352.1,154,349.4,151.4,346.2,151.4z"/>
				<path class="st11" d="M399.3,163.4c-0.8-0.7-1.9-0.6-2.6,0.1c-0.5,0.5-4.4,4.6-8.9,2.1c5.6-5.6,5.7-14,5.7-14.1
					c0-1-0.8-1.9-1.9-1.9c0,0,0,0,0,0c-1,0-1.9,0.8-1.9,1.9c0,0.6-0.2,14.4-13.8,15.2c-0.2-3.5-0.3-6.5-0.5-9
					c-0.2-2.7-0.3-4.9-0.4-6.3c-0.2-2.6-0.3-4.1-2.2-4.1c-0.7,0-1.4,0.4-1.7,1.1c-0.1,0.2-0.3,0.6-0.4,6.5c-2.2-0.5-5.1-2.1-5.4-6.4
					c-0.1-1-1-1.8-2-1.7c-1,0.1-1.8,1-1.7,2c0.5,6.6,5.2,9.2,9.1,9.9c0,4.7,0,11.5,0,21.5c-3.3-0.2-10-1.3-10.3-6.6
					c-0.1-1-1-1.8-2-1.7c-1,0.1-1.8,1-1.7,2c0.5,7.5,8.6,9.8,14.1,10.1c0,5.9,0.1,12.8,0.2,20.8c0,1,0.8,1.9,1.9,1.9h2.8
					c0.5,0,1-0.2,1.3-0.6c0.4-0.4,0.5-0.9,0.5-1.4c0-0.1-0.5-14-1.2-27.8c-0.1-2.2-0.2-4.4-0.3-6.3c3.5-0.2,6.3-1.1,8.5-2.4
					c2.1,1.6,4.2,2.2,6.1,2.2c3.8,0,7.1-2.3,8.7-4.1C400.1,165.3,400.1,164.1,399.3,163.4z"/>
			</g>
			<g>
				<path class="st10" d="M409.6,184.3c-0.7,0-1.4,0.1-2.1,0.2c-10.8,1.7-16.8,7.5-16.8,16.3c0,11.5,12.7,13.4,16.8,14.1
					c1.3,0.2,2.6,0.3,3.7,0.3c8.5,0,13.6-5.4,13.6-14.3C424.9,192,417.7,184.3,409.6,184.3z"/>
				<path class="st10" d="M431.5,209.2c-0.5,0-1,0-1.6,0.1c-8,1.1-12.4,5.1-12.4,11.1c0,8,9.3,9.2,12.4,9.6c0.9,0.1,1.8,0.2,2.7,0.2
					c6.4,0,10.2-3.7,10.2-9.8C442.8,214.5,437.5,209.2,431.5,209.2z"/>
				<path class="st10" d="M398.7,214.8c-0.6,0-1.2,0-1.8,0.1c-9.3,1.3-14.5,5.9-14.5,12.9c0,9.2,10.9,10.7,14.5,11.2
					c1.1,0.2,2.2,0.2,3.2,0.2c7.4,0,11.8-4.3,11.8-11.4C411.9,220.9,405.8,214.8,398.7,214.8z"/>
				<path class="st10" d="M434.1,195.9c-0.3,0-0.6,0-0.9,0.1c-4.6,0.7-7.2,3.1-7.2,6.7c0,3.3,2.4,5.3,7.2,5.9c0.5,0.1,1,0.1,1.5,0.1
					c3.8,0,6.2-2.3,6.2-6C440.9,199,437.8,195.9,434.1,195.9z"/>
				<path class="st10" d="M423.4,230.4c-0.3,0-0.5,0-0.8,0.1c-5.6,0.8-6.3,4.4-6.3,5.8c0,2.9,2.1,4.7,6.3,5.2
					c0.5,0.1,0.9,0.1,1.3,0.1c3.3,0,5.5-2.1,5.5-5.3C429.3,233.2,426.6,230.4,423.4,230.4z"/>
				<path class="st10" d="M384.9,204.6c-0.3,0-0.5,0-0.8,0.1c-5.6,0.8-6.2,4.3-6.2,5.8c0,2.9,2.1,4.6,6.2,5.2
					c0.4,0.1,0.9,0.1,1.3,0.1c3.3,0,5.4-2.1,5.4-5.3C390.7,207.3,388,204.6,384.9,204.6z"/>
				<path class="st11" d="M438,216.6c-0.8-0.7-1.9-0.6-2.6,0.1c-0.5,0.5-4.4,4.6-8.9,2.1c5.6-5.6,5.7-14,5.7-14.1
					c0-1-0.8-1.9-1.9-1.9c0,0,0,0,0,0c-1,0-1.9,0.8-1.9,1.9c0,0.6-0.2,14.4-13.8,15.2c-0.2-3.5-0.3-6.5-0.5-9
					c-0.2-2.7-0.3-4.9-0.4-6.3c-0.2-2.6-0.3-4.1-2.2-4.1c-0.7,0-1.4,0.4-1.7,1.1c-0.1,0.2-0.3,0.6-0.4,6.5c-2.2-0.5-5.1-2.1-5.4-6.4
					c-0.1-1-1-1.8-2-1.7c-1,0.1-1.8,1-1.7,2c0.5,6.6,5.2,9.2,9.1,9.9c0,4.7,0,11.5,0,21.5c-3.3-0.2-10-1.3-10.3-6.6
					c-0.1-1-1-1.8-2-1.7c-1,0.1-1.8,1-1.7,2c0.5,7.5,8.6,9.8,14.1,10.1c0,5.9,0.1,12.8,0.2,20.8c0,1,0.8,1.9,1.9,1.9h2.8
					c0.5,0,1-0.2,1.3-0.6c0.4-0.4,0.5-0.9,0.5-1.4c0-0.1-0.5-14-1.2-27.8c-0.1-2.2-0.2-4.4-0.3-6.3c3.5-0.2,6.3-1.1,8.5-2.4
					c2.1,1.6,4.2,2.2,6.1,2.2c3.8,0,7.1-2.3,8.7-4.1C438.8,218.5,438.7,217.3,438,216.6z"/>
			</g>
		</g>
		<g>
			<polygon class="st12" points="232.6,262.4 167.1,262.4 167.1,117.6 232.6,104.8 			"/>
			<g>
				<rect x="181.2" y="130.4" class="st13" width="13.4" height="13.3"/>
				<rect x="205.2" y="130.4" class="st13" width="13.3" height="13.3"/>
			</g>
			<g>
				<rect x="181.2" y="152" class="st13" width="13.4" height="13.3"/>
				<rect x="205.2" y="152" class="st13" width="13.4" height="13.3"/>
			</g>
			<g>
				<rect x="181.2" y="173.6" class="st13" width="13.4" height="13.4"/>
				<rect x="205.2" y="173.6" class="st13" width="13.3" height="13.4"/>
			</g>
			<g>
				<rect x="181.2" y="195.3" class="st13" width="13.4" height="13.3"/>
				<rect x="205.2" y="195.3" class="st13" width="13.3" height="13.3"/>
			</g>
			<g>
				<rect x="181.2" y="216.9" class="st13" width="13.4" height="13.3"/>
				<rect x="205.2" y="216.9" class="st13" width="13.3" height="13.3"/>
			</g>
			<g>
				<rect x="190.3" y="238.5" class="st13" width="21" height="23.9"/>
			</g>
		</g>
		<g>
			<polygon class="st12" points="522,262.4 456.5,262.4 456.5,117.6 490.3,99.8 522,117.2 			"/>
			<g>
				<rect x="470.6" y="130.4" class="st13" width="13.4" height="13.3"/>
				<rect x="494.6" y="130.4" class="st13" width="13.3" height="13.3"/>
			</g>
			<g>
				<rect x="470.6" y="152" class="st13" width="13.4" height="13.3"/>
				<rect x="494.6" y="152" class="st13" width="13.4" height="13.3"/>
			</g>
			<g>
				<rect x="470.6" y="173.6" class="st13" width="13.4" height="13.4"/>
				<rect x="494.6" y="173.6" class="st13" width="13.3" height="13.4"/>
			</g>
			<g>
				<rect x="470.6" y="195.3" class="st13" width="13.4" height="13.3"/>
				<rect x="494.6" y="195.3" class="st13" width="13.3" height="13.3"/>
			</g>
			<g>
				<rect x="470.6" y="216.9" class="st13" width="13.4" height="13.3"/>
				<rect x="494.6" y="216.9" class="st13" width="13.3" height="13.3"/>
			</g>
			<g>
				<rect x="479.8" y="238.5" class="st13" width="21" height="23.9"/>
			</g>
		</g>
		<g>
			<polygon class="st12" points="102.6,262.4 37.1,262.4 37.1,163.6 70.8,145.8 102.6,163.2 			"/>
			<g>
				<rect x="51.2" y="173.6" class="st13" width="13.3" height="13.3"/>
				<rect x="75.2" y="173.6" class="st13" width="13.3" height="13.3"/>
			</g>
			<g>
				<rect x="51.2" y="195.3" class="st13" width="13.3" height="13.3"/>
				<rect x="75.2" y="195.3" class="st13" width="13.3" height="13.3"/>
			</g>
			<g>
				<rect x="51.2" y="216.9" class="st13" width="13.3" height="13.3"/>
				<rect x="75.2" y="216.9" class="st13" width="13.3" height="13.3"/>
			</g>
			<g>
				<rect x="60.3" y="238.5" class="st13" width="21" height="23.9"/>
			</g>
		</g>
		<g>
			<polygon class="st14" points="687.4,262.4 621.9,262.4 621.9,183.6 655.7,165.8 687.4,183.2 			"/>
			<g>
				<rect x="636" y="195.3" class="st13" width="13.3" height="13.3"/>
				<rect x="660" y="195.3" class="st13" width="13.3" height="13.3"/>
			</g>
			<g>
				<rect x="636" y="216.9" class="st13" width="13.3" height="13.3"/>
				<rect x="660" y="216.9" class="st13" width="13.3" height="13.3"/>
			</g>
			<g>
				<rect x="645.2" y="238.5" class="st13" width="21" height="23.9"/>
			</g>
		</g>
		<g>
			<polygon class="st15" points="385.7,262.4 320.2,262.4 320.2,206.1 353.9,188.2 385.7,205.7 			"/>
			<g>
				<rect x="334.3" y="216.9" class="st13" width="13.3" height="13.3"/>
				<rect x="358.3" y="216.9" class="st13" width="13.3" height="13.3"/>
			</g>
			<g>
				<rect x="343.5" y="238.5" class="st13" width="21" height="23.9"/>
			</g>
		</g>
		<g>
			<polygon class="st15" points="168.1,262.4 102.6,262.4 102.6,206.1 136.3,188.2 168.1,205.7 			"/>
			<g>
				<rect x="116.6" y="216.9" class="st13" width="13.3" height="13.3"/>
				<rect x="140.7" y="216.9" class="st13" width="13.3" height="13.3"/>
			</g>
			<g>
				<rect x="125.8" y="238.5" class="st13" width="21" height="23.9"/>
			</g>
		</g>
		<g>
			<polygon class="st15" points="583.7,262.4 518.3,262.4 518.3,117.6 552,99.8 583.7,117.2 			"/>
			<g>
				<rect x="532.3" y="130.4" class="st13" width="13.3" height="13.3"/>
				<rect x="556.3" y="130.4" class="st13" width="13.3" height="13.3"/>
			</g>
			<g>
				<rect x="532.3" y="152" class="st13" width="13.3" height="13.3"/>
				<rect x="556.3" y="152" class="st13" width="13.3" height="13.4"/>
			</g>
			<g>
				<rect x="532.3" y="173.6" class="st13" width="13.3" height="13.3"/>
				<rect x="556.3" y="173.6" class="st13" width="13.3" height="13.4"/>
			</g>
			<g>
				<rect x="532.3" y="195.3" class="st13" width="13.3" height="13.3"/>
				<rect x="556.3" y="195.3" class="st13" width="13.3" height="13.3"/>
			</g>
			<g>
				<rect x="532.3" y="216.9" class="st13" width="13.3" height="13.3"/>
				<rect x="556.3" y="216.9" class="st13" width="13.3" height="13.3"/>
			</g>
			<g>
				<rect x="541.5" y="238.5" class="st13" width="21" height="23.9"/>
			</g>
		</g>
		<g>
			<polygon class="st14" points="298.1,262.4 232.6,262.4 232.6,68.4 298.1,55.5 			"/>
			<g>
				<rect x="246.6" y="130.4" class="st13" width="13.4" height="13.3"/>
				<rect x="270.7" y="130.4" class="st13" width="13.3" height="13.3"/>
			</g>
			<g>
				<rect x="246.6" y="152" class="st13" width="13.4" height="13.3"/>
				<rect x="270.7" y="152" class="st13" width="13.4" height="13.3"/>
			</g>
			<g>
				<rect x="246.6" y="173.6" class="st13" width="13.4" height="13.4"/>
				<rect x="270.7" y="173.6" class="st13" width="13.3" height="13.4"/>
			</g>
			<g>
				<rect x="246.6" y="87.1" class="st13" width="13.4" height="13.3"/>
				<rect x="270.7" y="87.1" class="st13" width="13.3" height="13.3"/>
			</g>
			<g>
				<rect x="246.6" y="108.8" class="st13" width="13.4" height="13.3"/>
				<rect x="270.7" y="108.8" class="st13" width="13.4" height="13.3"/>
			</g>
			<g>
				<rect x="246.6" y="195.3" class="st13" width="13.4" height="13.3"/>
				<rect x="270.7" y="195.3" class="st13" width="13.3" height="13.3"/>
			</g>
			<g>
				<rect x="246.6" y="216.9" class="st13" width="13.4" height="13.3"/>
				<rect x="270.7" y="216.9" class="st13" width="13.3" height="13.3"/>
			</g>
			<g>
				<rect x="255.8" y="238.5" class="st13" width="21" height="23.9"/>
			</g>
		</g>
		<g>
			<path class="st16" d="M455.6,168.8c-0.9,0-1.8,0.1-2.6,0.2c-13.5,2.1-20.9,9.3-20.9,20.3c0,14.3,15.7,16.7,20.9,17.4
				c1.6,0.2,3.2,0.4,4.6,0.4c10.6,0,16.9-6.7,16.9-17.8C474.6,178.3,465.7,168.8,455.6,168.8z"/>
			<path class="st16" d="M482.8,199.7c-0.6,0-1.3,0-1.9,0.1c-9.9,1.4-15.3,6.3-15.3,13.8c0,9.9,11.6,11.5,15.4,12
				c1.2,0.2,2.3,0.2,3.3,0.2c7.9,0,12.6-4.6,12.6-12.2C496.9,206.2,490.3,199.7,482.8,199.7z"/>
			<path class="st16" d="M442.1,206.6c-0.7,0-1.5,0.1-2.3,0.2c-11.6,1.7-18,7.4-18,16.1c0,11.4,13.5,13.3,18,13.9
				c1.4,0.2,2.7,0.3,3.9,0.3c9.2,0,14.7-5.3,14.7-14.2C458.5,214.2,450.9,206.6,442.1,206.6z"/>
			<path class="st16" d="M486.1,183.2c-0.4,0-0.8,0-1.2,0.1c-5.7,0.8-9,3.8-9,8.3c0,4.1,3,6.5,9,7.4c0.7,0.1,1.3,0.1,1.9,0.1
				c4.8,0,7.7-2.9,7.7-7.5C494.5,187,490.6,183.2,486.1,183.2z"/>
			<path class="st16" d="M472.7,226.1c-0.3,0-0.7,0-1,0.1c-7,1-7.8,5.4-7.8,7.3c0,3.6,2.6,5.8,7.8,6.5c0.6,0.1,1.1,0.1,1.6,0.1
				c4.1,0,6.8-2.6,6.8-6.6C480.1,229.4,476.7,226.1,472.7,226.1z"/>
			<path class="st16" d="M424.9,194c-0.3,0-0.7,0-1,0.1c-6.9,1-7.7,5.3-7.7,7.2c0,3.6,2.6,5.7,7.7,6.4c0.6,0.1,1.1,0.1,1.6,0.1
				c4.1,0,6.7-2.6,6.7-6.5C432.2,197.3,428.9,194,424.9,194z"/>
			<path class="st17" d="M490.9,208.9c-0.9-0.9-2.4-0.8-3.3,0.2c-0.6,0.6-5.5,5.7-11.1,2.6c6.9-6.9,7.1-17.3,7.1-17.5
				c0-1.3-1-2.3-2.3-2.3c0,0,0,0,0,0c-1.3,0-2.3,1-2.3,2.3c0,0.7-0.3,17.8-17.1,18.8c-0.2-4.4-0.4-8.1-0.6-11.2
				c-0.2-3.4-0.4-6.1-0.5-7.9c-0.3-3.2-0.4-5.1-2.7-5.1c-0.9,0-1.7,0.5-2.1,1.3c-0.1,0.3-0.4,0.8-0.5,8c-2.8-0.7-6.3-2.6-6.7-7.9
				c-0.1-1.3-1.2-2.3-2.5-2.2c-1.3,0.1-2.2,1.2-2.2,2.5c0.6,8.3,6.5,11.4,11.3,12.3c0,5.8,0,14.3,0,26.7c-4-0.3-12.4-1.6-12.8-8.2
				c-0.1-1.3-1.2-2.3-2.5-2.2c-1.3,0.1-2.2,1.2-2.2,2.5c0.7,9.4,10.7,12.2,17.5,12.5c0.1,7.3,0.1,15.8,0.3,25.8
				c0,1.3,1.1,2.3,2.3,2.3h3.5c0.6,0,1.2-0.3,1.7-0.7c0.4-0.5,0.7-1.1,0.6-1.7c0-0.2-0.7-17.4-1.4-34.5c-0.1-2.8-0.2-5.4-0.4-7.9
				c4.3-0.2,7.8-1.4,10.6-3c2.6,1.9,5.2,2.7,7.6,2.7c4.7,0,8.8-2.8,10.9-5.1C491.9,211.2,491.8,209.8,490.9,208.9z"/>
		</g>
		<g>
			<path class="st16" d="M313.5,187c-0.7,0-1.4,0.1-2.1,0.2c-10.8,1.7-16.8,7.5-16.8,16.3c0,11.5,12.7,13.4,16.8,14.1
				c1.3,0.2,2.6,0.3,3.7,0.3c8.5,0,13.6-5.4,13.6-14.3C328.7,194.7,321.6,187,313.5,187z"/>
			<path class="st16" d="M335.4,211.9c-0.5,0-1,0-1.6,0.1c-8,1.1-12.4,5.1-12.4,11.1c0,8,9.3,9.2,12.4,9.6c0.9,0.1,1.8,0.2,2.7,0.2
				c6.4,0,10.2-3.7,10.2-9.8C346.7,217.2,341.4,211.9,335.4,211.9z"/>
			<path class="st16" d="M302.6,217.5c-0.6,0-1.2,0-1.8,0.1c-9.3,1.3-14.5,5.9-14.5,12.9c0,9.2,10.9,10.7,14.5,11.2
				c1.1,0.2,2.2,0.2,3.2,0.2c7.4,0,11.8-4.3,11.8-11.4C315.8,223.6,309.6,217.5,302.6,217.5z"/>
			<path class="st16" d="M338,198.6c-0.3,0-0.6,0-0.9,0.1c-4.6,0.7-7.2,3.1-7.2,6.7c0,3.3,2.4,5.3,7.2,5.9c0.5,0.1,1,0.1,1.5,0.1
				c3.8,0,6.2-2.3,6.2-6C344.8,201.7,341.7,198.6,338,198.6z"/>
			<path class="st16" d="M327.3,233.1c-0.3,0-0.5,0-0.8,0.1c-5.6,0.8-6.3,4.4-6.3,5.8c0,2.9,2.1,4.7,6.3,5.2
				c0.5,0.1,0.9,0.1,1.3,0.1c3.3,0,5.5-2.1,5.5-5.3C333.2,235.9,330.5,233.1,327.3,233.1z"/>
			<path class="st16" d="M288.7,207.3c-0.3,0-0.5,0-0.8,0.1c-5.6,0.8-6.2,4.3-6.2,5.8c0,2.9,2.1,4.6,6.2,5.2
				c0.4,0.1,0.9,0.1,1.3,0.1c3.3,0,5.4-2.1,5.4-5.3C294.6,210,291.9,207.3,288.7,207.3z"/>
			<path class="st17" d="M341.9,219.3c-0.8-0.7-1.9-0.6-2.6,0.1c-0.5,0.5-4.4,4.6-8.9,2.1c5.6-5.6,5.7-14,5.7-14.1
				c0-1-0.8-1.9-1.9-1.9c0,0,0,0,0,0c-1,0-1.9,0.8-1.9,1.9c0,0.6-0.2,14.4-13.8,15.2c-0.2-3.5-0.3-6.5-0.5-9
				c-0.2-2.7-0.3-4.9-0.4-6.3c-0.2-2.6-0.3-4.1-2.2-4.1c-0.7,0-1.4,0.4-1.7,1.1c-0.1,0.2-0.3,0.6-0.4,6.5c-2.2-0.5-5.1-2.1-5.4-6.4
				c-0.1-1-1-1.8-2-1.7c-1,0.1-1.8,1-1.7,2c0.5,6.7,5.2,9.2,9.1,9.9c0,4.7,0,11.5,0,21.5c-3.3-0.2-10-1.3-10.3-6.6
				c-0.1-1-1-1.8-2-1.7c-1,0.1-1.8,1-1.7,2c0.5,7.5,8.6,9.8,14.1,10.1c0,5.9,0.1,12.8,0.2,20.8c0,1,0.8,1.9,1.9,1.9h2.8
				c0.5,0,1-0.2,1.3-0.6c0.4-0.4,0.5-0.9,0.5-1.4c0-0.1-0.5-14-1.2-27.8c-0.1-2.2-0.2-4.4-0.3-6.3c3.5-0.2,6.3-1.1,8.5-2.4
				c2.1,1.6,4.2,2.2,6.1,2.2c3.8,0,7.1-2.3,8.7-4.1C342.7,221.2,342.6,220,341.9,219.3z"/>
		</g>
		<g>
			<path class="st16" d="M618.2,187c-0.7,0-1.4,0.1-2.1,0.2c-10.8,1.7-16.8,7.5-16.8,16.3c0,11.5,12.7,13.4,16.8,14.1
				c1.3,0.2,2.6,0.3,3.7,0.3c8.5,0,13.6-5.4,13.6-14.3C633.4,194.7,626.3,187,618.2,187z"/>
			<path class="st16" d="M640.1,211.9c-0.5,0-1,0-1.6,0.1c-8,1.1-12.4,5.1-12.4,11.1c0,8,9.3,9.2,12.4,9.6c0.9,0.1,1.8,0.2,2.7,0.2
				c6.4,0,10.2-3.7,10.2-9.8C651.4,217.2,646.1,211.9,640.1,211.9z"/>
			<path class="st16" d="M607.3,217.5c-0.6,0-1.2,0-1.8,0.1c-9.3,1.3-14.5,5.9-14.5,12.9c0,9.2,10.9,10.7,14.5,11.2
				c1.1,0.2,2.2,0.2,3.2,0.2c7.4,0,11.8-4.3,11.8-11.4C620.5,223.6,614.3,217.5,607.3,217.5z"/>
			<path class="st16" d="M642.7,198.6c-0.3,0-0.6,0-0.9,0.1c-4.6,0.7-7.2,3.1-7.2,6.7c0,3.3,2.4,5.3,7.2,5.9c0.5,0.1,1,0.1,1.5,0.1
				c3.8,0,6.2-2.3,6.2-6C649.5,201.7,646.4,198.6,642.7,198.6z"/>
			<path class="st16" d="M631.9,233.1c-0.3,0-0.5,0-0.8,0.1c-5.6,0.8-6.3,4.4-6.3,5.8c0,2.9,2.1,4.7,6.3,5.2
				c0.5,0.1,0.9,0.1,1.3,0.1c3.3,0,5.5-2.1,5.5-5.3C637.9,235.9,635.1,233.1,631.9,233.1z"/>
			<path class="st16" d="M593.4,207.3c-0.3,0-0.5,0-0.8,0.1c-5.6,0.8-6.2,4.3-6.2,5.8c0,2.9,2.1,4.6,6.2,5.2
				c0.4,0.1,0.9,0.1,1.3,0.1c3.3,0,5.4-2.1,5.4-5.3C599.3,210,596.6,207.3,593.4,207.3z"/>
			<path class="st17" d="M646.5,219.3c-0.8-0.7-1.9-0.6-2.6,0.1c-0.5,0.5-4.4,4.6-8.9,2.1c5.6-5.6,5.7-14,5.7-14.1
				c0-1-0.8-1.9-1.9-1.9c0,0,0,0,0,0c-1,0-1.9,0.8-1.9,1.9c0,0.6-0.2,14.4-13.8,15.2c-0.2-3.5-0.3-6.5-0.5-9
				c-0.2-2.7-0.3-4.9-0.4-6.3c-0.2-2.6-0.3-4.1-2.2-4.1c-0.7,0-1.4,0.4-1.7,1.1c-0.1,0.2-0.3,0.6-0.4,6.5c-2.2-0.5-5.1-2.1-5.4-6.4
				c-0.1-1-1-1.8-2-1.7c-1,0.1-1.8,1-1.7,2c0.5,6.7,5.2,9.2,9.1,9.9c0,4.7,0,11.5,0,21.5c-3.3-0.2-10-1.3-10.3-6.6
				c-0.1-1-1-1.8-2-1.7c-1,0.1-1.8,1-1.7,2c0.5,7.5,8.6,9.8,14.1,10.1c0,5.9,0.1,12.8,0.2,20.8c0,1,0.8,1.9,1.9,1.9h2.8
				c0.5,0,1-0.2,1.3-0.6c0.4-0.4,0.5-0.9,0.5-1.4c0-0.1-0.5-14-1.2-27.8c-0.1-2.2-0.2-4.4-0.3-6.3c3.5-0.2,6.3-1.1,8.5-2.4
				c2.1,1.6,4.2,2.2,6.1,2.2c3.8,0,7.1-2.3,8.7-4.1C647.4,221.2,647.3,220,646.5,219.3z"/>
		</g>
		<g>
			<path class="st18" d="M580.4,187c-0.7,0-1.4,0.1-2.1,0.2c-10.8,1.7-16.8,7.5-16.8,16.3c0,11.5,12.7,13.4,16.8,14.1
				c1.3,0.2,2.6,0.3,3.7,0.3c8.5,0,13.6-5.4,13.6-14.3C595.6,194.7,588.5,187,580.4,187z"/>
			<path class="st18" d="M602.3,211.9c-0.5,0-1,0-1.6,0.1c-8,1.1-12.4,5.1-12.4,11.1c0,8,9.3,9.2,12.4,9.6c0.9,0.1,1.8,0.2,2.7,0.2
				c6.4,0,10.2-3.7,10.2-9.8C613.6,217.2,608.3,211.9,602.3,211.9z"/>
			<path class="st18" d="M569.5,217.5c-0.6,0-1.2,0-1.8,0.1c-9.3,1.3-14.5,5.9-14.5,12.9c0,9.2,10.9,10.7,14.5,11.2
				c1.1,0.2,2.2,0.2,3.2,0.2c7.4,0,11.8-4.3,11.8-11.4C582.7,223.6,576.5,217.5,569.5,217.5z"/>
			<path class="st16" d="M604.9,198.6c-0.3,0-0.6,0-0.9,0.1c-4.6,0.7-7.2,3.1-7.2,6.7c0,3.3,2.4,5.3,7.2,5.9c0.5,0.1,1,0.1,1.5,0.1
				c3.8,0,6.2-2.3,6.2-6C611.7,201.7,608.6,198.6,604.9,198.6z"/>
			<path class="st18" d="M594.1,233.1c-0.3,0-0.5,0-0.8,0.1c-5.6,0.8-6.3,4.4-6.3,5.8c0,2.9,2.1,4.7,6.3,5.2
				c0.5,0.1,0.9,0.1,1.3,0.1c3.3,0,5.5-2.1,5.5-5.3C600.1,235.9,597.4,233.1,594.1,233.1z"/>
			<path class="st18" d="M555.6,207.3c-0.3,0-0.5,0-0.8,0.1c-5.6,0.8-6.2,4.3-6.2,5.8c0,2.9,2.1,4.6,6.2,5.2
				c0.4,0.1,0.9,0.1,1.3,0.1c3.3,0,5.4-2.1,5.4-5.3C561.5,210,558.8,207.3,555.6,207.3z"/>
			<path class="st17" d="M608.8,219.3c-0.8-0.7-1.9-0.6-2.6,0.1c-0.5,0.5-4.4,4.6-8.9,2.1c5.6-5.6,5.7-14,5.7-14.1
				c0-1-0.8-1.9-1.9-1.9c0,0,0,0,0,0c-1,0-1.9,0.8-1.9,1.9c0,0.6-0.2,14.4-13.8,15.2c-0.2-3.5-0.3-6.5-0.5-9
				c-0.2-2.7-0.3-4.9-0.4-6.3c-0.2-2.6-0.3-4.1-2.2-4.1c-0.7,0-1.4,0.4-1.7,1.1c-0.1,0.2-0.3,0.6-0.4,6.5c-2.2-0.5-5.1-2.1-5.4-6.4
				c-0.1-1-1-1.8-2-1.7c-1,0.1-1.8,1-1.7,2c0.5,6.7,5.2,9.2,9.1,9.9c0,4.7,0,11.5,0,21.5c-3.3-0.2-10-1.3-10.3-6.6
				c-0.1-1-1-1.8-2-1.7c-1,0.1-1.8,1-1.7,2c0.5,7.5,8.6,9.8,14.1,10.1c0,5.9,0.1,12.8,0.2,20.8c0,1,0.8,1.9,1.9,1.9h2.8
				c0.5,0,1-0.2,1.3-0.6c0.4-0.4,0.5-0.9,0.5-1.4c0-0.1-0.5-14-1.2-27.8c-0.1-2.2-0.2-4.4-0.3-6.3c3.5-0.2,6.3-1.1,8.5-2.4
				c2.1,1.6,4.2,2.2,6.1,2.2c3.8,0,7.1-2.3,8.7-4.1C609.6,221.2,609.5,220,608.8,219.3z"/>
		</g>
		<g>
			<path class="st16" d="M31.7,187c-0.7,0-1.4,0.1-2.1,0.2c-10.8,1.7-16.8,7.5-16.8,16.3c0,11.5,12.7,13.4,16.8,14.1
				c1.3,0.2,2.6,0.3,3.7,0.3c8.5,0,13.6-5.4,13.6-14.3C47,194.7,39.9,187,31.7,187z"/>
			<path class="st16" d="M53.6,211.9c-0.5,0-1,0-1.6,0.1c-8,1.1-12.4,5.1-12.4,11.1c0,8,9.3,9.2,12.4,9.6c0.9,0.1,1.8,0.2,2.7,0.2
				c6.4,0,10.2-3.7,10.2-9.8C65,217.2,59.7,211.9,53.6,211.9z"/>
			<path class="st16" d="M20.9,217.5c-0.6,0-1.2,0-1.8,0.1c-9.3,1.3-14.5,5.9-14.5,12.9c0,9.2,10.9,10.7,14.5,11.2
				c1.1,0.2,2.2,0.2,3.2,0.2c7.4,0,11.8-4.3,11.8-11.4C34.1,223.6,27.9,217.5,20.9,217.5z"/>
			<path class="st16" d="M56.2,198.6c-0.3,0-0.6,0-0.9,0.1c-4.6,0.7-7.2,3.1-7.2,6.7c0,3.3,2.4,5.3,7.2,5.9c0.5,0.1,1,0.1,1.5,0.1
				c3.8,0,6.2-2.3,6.2-6C63,201.7,59.9,198.6,56.2,198.6z"/>
			<path class="st16" d="M45.5,233.1c-0.3,0-0.5,0-0.8,0.1c-5.6,0.8-6.3,4.4-6.3,5.8c0,2.9,2.1,4.7,6.3,5.2c0.5,0.1,0.9,0.1,1.3,0.1
				c3.3,0,5.5-2.1,5.5-5.3C51.5,235.9,48.7,233.1,45.5,233.1z"/>
			<path class="st16" d="M7,207.3c-0.3,0-0.5,0-0.8,0.1c-5.6,0.8-6.2,4.3-6.2,5.8c0,2.9,2.1,4.6,6.2,5.2c0.4,0.1,0.9,0.1,1.3,0.1
				c3.3,0,5.4-2.1,5.4-5.3C12.9,210,10.2,207.3,7,207.3z"/>
			<path class="st17" d="M60.1,219.3c-0.8-0.7-1.9-0.6-2.6,0.1c-0.5,0.5-4.4,4.6-8.9,2.1c5.6-5.6,5.7-14,5.7-14.1
				c0-1-0.8-1.9-1.9-1.9c0,0,0,0,0,0c-1,0-1.9,0.8-1.9,1.9c0,0.6-0.2,14.4-13.8,15.2c-0.2-3.5-0.3-6.5-0.5-9
				c-0.2-2.7-0.3-4.9-0.4-6.3c-0.2-2.6-0.3-4.1-2.2-4.1c-0.7,0-1.4,0.4-1.7,1.1c-0.1,0.2-0.3,0.6-0.4,6.5c-2.2-0.5-5.1-2.1-5.4-6.4
				c-0.1-1-1-1.8-2-1.7c-1,0.1-1.8,1-1.7,2c0.5,6.7,5.2,9.2,9.1,9.9c0,4.7,0,11.5,0,21.5c-3.3-0.2-10-1.3-10.3-6.6
				c-0.1-1-1-1.8-2-1.7c-1,0.1-1.8,1-1.7,2c0.5,7.5,8.6,9.8,14.1,10.1c0,5.9,0.1,12.8,0.2,20.8c0,1,0.8,1.9,1.9,1.9h2.8
				c0.5,0,1-0.2,1.3-0.6c0.4-0.4,0.5-0.9,0.5-1.4c0-0.1-0.5-14-1.2-27.8c-0.1-2.2-0.2-4.4-0.3-6.3c3.5-0.2,6.3-1.1,8.5-2.4
				c2.1,1.6,4.2,2.2,6.1,2.2c3.8,0,7.1-2.3,8.7-4.1C60.9,221.2,60.9,220,60.1,219.3z"/>
		</g>
	</g>
</g>
</svg>
